<?xml version="1.0" standalone="no"?>
<!DOCTYPE svg PUBLIC "-//W3C//DTD SVG 1.1//EN" "http://www.w3.org/Graphics/SVG/1.1/DTD/svg11.dtd">
<svg xmlns="http://www.w3.org/2000/svg"><metadata>This SVG WebFont was generated by YouWorkForThem.
</metadata><defs><font horiz-adv-x="1085" id="ywftsvg"><font-face ascent="1638" bbox="81.1795 -218 2324 1640.24" cap-height="1432" descent="-410" font-family="" font-stretch="normal" font-weight="400" panose-1="0 0 0 0 0 0 0 0 0 0" underline-position="0" underline-thickness="0" unicode-range="U+000A-F025" units-per-em="2048" x-height="1421"/><missing-glyph d="M82 1434h874v-1434h-874v1434zM139 1393l379 -633l381 633h-760zM494 717l-369 614v-1231zM520 674l-379 -631h758zM545 717l370 -621v1239z" horiz-adv-x="1038"/><glyph d="M82 1434h874v-1434h-874v1434zM139 1393l379 -633l381 633h-760zM494 717l-369 614v-1231zM520 674l-379 -631h758zM545 717l370 -621v1239z" glyph-name=".notdef" horiz-adv-x="1038"/><glyph glyph-name="glyph1" horiz-adv-x="163"/><glyph glyph-name="glyph1" horiz-adv-x="163"/><glyph glyph-name="glyph2" horiz-adv-x="681"/><glyph glyph-name="uni000A" horiz-adv-x="163" unicode="&#x0a;"/><glyph glyph-name="space" horiz-adv-x="718" unicode=" "/><glyph d="M203 369q-20 0 -34.5 15t-14.5 36v964q0 20 14 35t35 15h135q20 0 35.5 -14.5t15.5 -35.5v-964q0 -20 -15.5 -35.5t-35.5 -15.5h-135zM271.5 260q52.5 0 90 -38t37.5 -90t-37.5 -90t-90 -38t-90.5 38t-38 90t38 90t90.5 38z" glyph-name="exclam" horiz-adv-x="542" unicode="!"/><glyph d="M276 1475q51 0 52 -21v-256q0 -20 -14.5 -34.5t-37.5 -14.5h-143q-23 0 -37 14.5t-14 34.5v186v70q0 20 51 21h143zM614 1475q49 0 50 -21v-256q0 -20 -14.5 -34.5t-35.5 -14.5h-145q-20 0 -35.5 14.5t-15.5 34.5v186v70q0 20 51 21h145z" glyph-name="quotedbl" horiz-adv-x="745" unicode="&quot;"/><glyph d="M276 1475q51 0 52 -21v-256q0 -20 -14.5 -34.5t-37.5 -14.5h-143q-23 0 -37 14.5t-14 34.5v186v70q0 20 51 21h143zM614 1475q49 0 50 -21v-256q0 -20 -14.5 -34.5t-35.5 -14.5h-145q-20 0 -35.5 14.5t-15.5 34.5v186v70q0 20 51 21h145z" glyph-name="quotedbl" horiz-adv-x="745" unicode="”"/><glyph d="M276 1475q51 0 52 -21v-256q0 -20 -14.5 -34.5t-37.5 -14.5h-143q-23 0 -37 14.5t-14 34.5v186v70q0 20 51 21h143zM614 1475q49 0 50 -21v-256q0 -20 -14.5 -34.5t-35.5 -14.5h-145q-20 0 -35.5 14.5t-15.5 34.5v186v70q0 20 51 21h145z" glyph-name="quotedbl" horiz-adv-x="745" unicode="“"/><glyph d="M1056.5 1116q20.5 0 35 -14.5t14.5 -36.5v-133q0 -23 -15.5 -37t-35.5 -14h-49q-23 0 -40.5 -14.5t-23.5 -35.5l-39 -174q-4 -20 7.5 -34.5t31.5 -14.5h8q20 0 35.5 -14t15.5 -35v-135q0 -20 -15 -35.5t-36 -15.5h-61q-20 0 -39 -14.5t-23 -34.5l-63 -271 q-10 -49 -12 -57q-2 -10 -43 0q-10 2 -42 9t-46 11l-52 13q-20 4 -31.5 21.5t-7.5 37.5l56 236q4 20 -7.5 34.5t-33.5 14.5h-74q-20 0 -38.5 -14.5t-22.5 -34.5l-64 -271q-2 -12 -5 -25.5t-5 -21.5t-2 -10q-2 -10 -41 0q-6 0 -40 8t-48 12l-53 13q-20 4 -31.5 21.5 t-7.5 37.5l55 236q4 20 -7 34.5t-30.5 14.5t-34 15t-14.5 36v135q0 20 14.5 34.5t36.5 14.5h49q20 0 39 14.5t23 34.5l41 174q4 20 -7.5 35t-31.5 15h-8q-23 0 -37.5 14t-14.5 37v133q0 23 14.5 37t37.5 14h61q20 0 38.5 14.5t22.5 34.5l52 219q2 12 6 26.5t6 27t4 16.5 q4 20 53 8l76 -16q53 -12 76 -19q12 -2 17 -18t1 -37l-49 -207q-4 -20 7.5 -34.5t31.5 -14.5h76q20 0 38.5 14.5t22.5 34.5l51 219q14 66 15 70q6 20 55 8l74 -16q55 -12 78 -19q12 -2 17 -18t-1 -37l-47 -207q-4 -20 6 -34.5t30.5 -14.5zM700 831q6 20 -5 35t-33 15h-74 q-20 0 -39 -14.5t-23 -35.5l-41 -174q-4 -20 7.5 -34.5t31.5 -14.5h76q20 0 38.5 14.5t23.5 34.5z" glyph-name="numbersign" horiz-adv-x="1187" unicode="#"/><glyph d="M709 803q70 -27 121 -58.5t101 -77.5t77.5 -113t27.5 -146q0 -150 -100 -258.5t-260 -137.5v-98q0 -23 -14.5 -37t-36.5 -14h-131q-23 0 -38.5 14t-15.5 37v94q-137 25 -236.5 127.5t-117.5 241.5q-4 25 11.5 42t39.5 17h133q18 0 32.5 -12t19.5 -33q10 -41 36 -74 q18 -27 45 -45q12 -8 24.5 -0.5t12.5 21.5v323q0 35 -30 48q-70 27 -121 56.5t-101.5 74.5t-78 107.5t-27.5 139.5q0 147 98.5 250t259.5 129v131q0 20 15.5 36t38.5 16h131q23 0 37 -15.5t14 -36.5v-129q139 -23 238.5 -125t117.5 -241q2 -25 -13 -42.5t-38 -17.5h-133 q-18 0 -33.5 12.5t-17.5 28.5q-16 78 -84 123q-12 8 -24.5 1t-12.5 -21v-289q0 -35 33 -49zM440 944v203q0 12 -10 19.5t-22 2.5q-90 -41 -91 -127q0 -72 89 -118q12 -6 23 0t11 20zM711 270q90 47 90 138q0 82 -88 133q-12 8 -24.5 1t-12.5 -22v-229q0 -12 12.5 -19.5 t22.5 -1.5z" glyph-name="dollar" horiz-adv-x="1118" unicode="$"/><glyph d="M1245 1440q-2 -4 -18 -54l-443 -1333q-4 -10 -9 -27.5t-10 -30.5t-7 -22q-4 -12 -20.5 -16t-37.5 2l-88 29q-43 14 -67 22q-20 8 -4 56l438 1320q2 6 13.5 41t17.5 50q4 16 22.5 23t38.5 1l127 -43q49 -14 47 -18zM1348.5 754q138.5 0 236.5 -109.5t98 -264.5t-98 -265.5 t-235 -110.5h-2q-137 0 -234.5 110.5t-97.5 265.5t97 264.5t235.5 109.5zM1349 240q40 0 68.5 41t28.5 98t-28.5 98t-68.5 41t-69 -41t-29 -98t29 -98t69 -41zM750 1059.5q0 -154.5 -98.5 -265t-237 -110.5t-235.5 110.5t-97 265t97 264.5t235.5 110t237 -110t98.5 -264.5z M415 920q40 0 69.5 42t29.5 98t-29.5 97t-69.5 41t-69 -41t-29 -97t29 -98t69 -42z" glyph-name="percent" horiz-adv-x="1765" unicode="%"/><glyph d="M1223 821q20 0 35.5 -15t15.5 -36v-135q0 -20 -15.5 -34.5t-35.5 -14.5h-164q-23 0 -37 -15.5t-14 -35.5v-644q0 -20 -15.5 -35.5t-36.5 -15.5h-133q-23 0 -37 15.5t-14 35.5v105q0 8 -8 13t-16 1q-86 -39 -183 -39h-41q-182 0 -312 132.5t-130 316.5v565 q0 186 130 317.5t312 131.5h41q102 0 193.5 -45.5t154.5 -126.5q14 -18 9.5 -41t-23.5 -35l-117 -68q-37 -20 -65 10q-59 70 -152 70h-41q-86 0 -146.5 -62.5t-60.5 -150.5v-565q0 -88 60.5 -150.5t146.5 -62.5h41q86 0 146.5 62.5t60.5 150.5v115q0 20 -15.5 35.5 t-35.5 15.5h-172q-20 0 -35.5 14t-15.5 35v135q0 20 15 35.5t36 15.5h674z" glyph-name="ampersand" horiz-adv-x="1355" unicode="&amp;"/><glyph d="M276 1475q51 0 52 -21v-256q0 -20 -14.5 -34.5t-37.5 -14.5h-143q-23 0 -37 14.5t-14 34.5v186v70q0 20 51 21h143z" glyph-name="quotesingle" horiz-adv-x="409" unicode="'"/><glyph d="M276 1475q51 0 52 -21v-256q0 -20 -14.5 -34.5t-37.5 -14.5h-143q-23 0 -37 14.5t-14 34.5v186v70q0 20 51 21h143z" glyph-name="quotesingle" horiz-adv-x="409" unicode="‘"/><glyph d="M793 1405q-201 -18 -338.5 -168t-137.5 -352v-303q0 -203 137.5 -352.5t338.5 -168.5q20 -2 33.5 -16t13.5 -35v-133q0 -23 -15.5 -38t-38.5 -13q-248 16 -436 178q-127 106 -197.5 257t-70.5 321v303q0 160 62.5 302t174.5 247q197 188 467 206q23 2 38.5 -13t15.5 -38 v-133q0 -20 -13.5 -34.5t-33.5 -16.5z" glyph-name="parenleft" horiz-adv-x="921" unicode="("/><glyph d="M602 1434q113 -104 175.5 -247t62.5 -302v-303q0 -170 -71 -320.5t-196 -257.5q-190 -162 -438 -178q-20 -2 -36.5 13.5t-16.5 37.5v133q0 20 13.5 34.5t33.5 16.5q201 18 338 168t137 353v303q0 203 -137 352t-338 168q-20 2 -33.5 16.5t-13.5 34.5v133q0 23 16.5 38 t36.5 13q270 -18 467 -206z" glyph-name="parenright" horiz-adv-x="921" unicode=")"/><glyph d="M741 897q16 -12 21.5 -32.5t-6.5 -37.5l-72 -112q-12 -18 -32.5 -22.5t-37.5 5.5l-30 21q-16 10 -29.5 3t-13.5 -28v-35q0 -20 -14.5 -35.5t-34.5 -15.5h-136q-20 0 -35.5 15.5t-15.5 35.5v39q0 20 -12 27.5t-29 -4.5l-33 -21q-18 -10 -38.5 -5t-30.5 22l-72 114 q-12 16 -7 37t23 33l56 35q18 10 18 26.5t-18 28.5l-56 35q-18 12 -22 32.5t8 37.5l72 112q12 18 32.5 22.5t36.5 -5.5l31 -21q16 -10 28.5 -3t12.5 28v35q0 20 15.5 35.5t35.5 15.5h136q20 0 34.5 -15.5t14.5 -35.5v-39q0 -20 13 -27.5t30 4.5l32 21q18 10 39 5t31 -22 l72 -114q12 -16 7 -37t-24 -33l-55 -35q-18 -10 -18 -26.5t18 -28.5z" glyph-name="asterisk" horiz-adv-x="847" unicode="*"/><glyph d="M210 260q52 0 90 -38t38 -91v-72q0 -27 -6 -55q-14 -90 -74 -160l-2 -4q-12 -14 -29.5 -7t-17.5 26v94q0 20 -15.5 35.5t-35.5 15.5q-31 0 -53.5 22.5t-22.5 53.5v51q0 53 38 91t90 38z" glyph-name="comma" horiz-adv-x="419" unicode=","/><glyph d="M210 260q52 0 90 -38t38 -90t-38 -90t-90 -38t-90 38t-38 90t38 90t90 38z" glyph-name="period" horiz-adv-x="419" unicode="."/><glyph d="M829 1581q20 -6 29.5 -24.5t3.5 -38.5l-12 -35q-4 -14 -16.5 -50t-16.5 -47l-448 -1333q-6 -16 -17.5 -51t-15.5 -45l-29 -84q-6 -20 -24.5 -29.5t-38.5 -3.5l-127 43q-20 6 -29.5 25.5t-3.5 38.5l4 10q12 39 31 96l450 1333q0 2 33 97l37 110q6 20 24.5 29.5t38.5 1.5z " glyph-name="slash" horiz-adv-x="946" unicode="/"/><glyph d="M560 1427q198 0 338 -140t140 -339v-469q0 -199 -140 -339t-338 -140t-338 140.5t-140 338.5v469q0 199 140 339t338 140zM803 479v469q0 100 -70.5 172t-171 72t-172.5 -71.5t-72 -172.5v-469q0 -100 72 -171.5t172.5 -71.5t171 71.5t70.5 171.5z" glyph-name="zero" horiz-adv-x="1120" unicode="0"/><glyph d="M420 1430q20 0 34.5 -14.5t14.5 -35.5v-1329q0 -23 -14.5 -37t-34.5 -14h-135q-20 0 -36 14.5t-16 36.5v1094q0 20 -14 34.5t-35 14.5h-51q-23 0 -37 15.5t-14 35.5v135q0 20 14.5 35t36.5 15h287z" glyph-name="one" horiz-adv-x="669" unicode="1"/><glyph d="M862 662l-375 -396q-8 -8 -4 -19t17 -11h415q23 0 38.5 -15.5t15.5 -36.5v-131q0 -23 -15.5 -38t-38.5 -15h-757q-20 0 -36 15.5t-16 35.5v137q0 20 15 35l577 606q68 63 68 156v27q0 94 -69.5 160.5t-166.5 62.5q-90 -4 -151.5 -71.5t-61.5 -159.5v-39q0 -20 -15 -36 t-36 -16h-133q-20 0 -35.5 15.5t-15.5 36.5v47q0 137 74.5 250.5t197.5 167.5q90 41 187.5 40.5t187.5 -40.5q121 -53 196.5 -167t75.5 -251v-27q0 -190 -139 -323z" glyph-name="two" horiz-adv-x="1083" unicode="2"/><glyph d="M825 905q104 -68 166 -179.5t60 -242.5q-2 -197 -145.5 -337t-344.5 -146h-2q-168 0 -301 103.5t-174 263.5q-6 23 7 42t36 23l131 19q18 2 34.5 -8.5t22.5 -28.5q29 -88 107 -138.5t170 -37.5q90 12 153.5 78.5t69.5 156.5t-44 163t-134 99q-25 8 -41 -10 q-10 -12 -25.5 -14t-27.5 8l-113 96q-16 12 -18 32.5t12 37.5l225 268q8 10 2 24.5t-20 14.5h-459q-23 0 -37 15.5t-14 35.5v133q0 20 14.5 35.5t36.5 15.5h797q20 0 35.5 -15t15.5 -36v-127q0 -20 -12 -35l-195 -231q-14 -18 -11 -42t23 -36z" glyph-name="three" horiz-adv-x="1132" unicode="3"/><glyph d="M991 594q20 0 35.5 -15.5t15.5 -35.5v-135q0 -20 -15 -35t-36 -15h-8q-20 0 -35.5 -15t-15.5 -36v-256q0 -23 -14.5 -37t-34.5 -14h-135q-20 0 -36 14.5t-16 36.5v256q0 20 -14 35.5t-35 15.5h-514q-23 0 -37 14.5t-14 35.5v59q0 51 27 94l532 828q12 16 34.5 28.5 t43.5 12.5h164q20 0 34.5 -14.5t14.5 -35.5v-737q0 -20 15.5 -34.5t35.5 -14.5h8zM696 643v344q0 20 -7 23.5t-19 -15.5l-232 -360q-12 -16 -5 -28.5t28 -12.5h186q20 0 34.5 14.5t14.5 34.5z" glyph-name="four" horiz-adv-x="1124" unicode="4"/><glyph d="M940 766q129 -160 86 -377q-29 -139 -127 -241.5t-233 -135.5q-55 -12 -111 -12h-3h-1h-2q-147 0 -268 84q-152 104 -197 285q-6 20 7 39.5t36 23.5l133 17q18 4 33.5 -6.5t21.5 -28.5q27 -86 99 -135q90 -61 196 -37q70 16 120 69.5t65 124.5q23 109 -37 180 q-72 86 -207 86h-291q-59 0 -100 42t-41 102v532q0 23 14 37.5t37 14.5h696q23 0 37.5 -14.5t14.5 -37.5v-133q0 -20 -14.5 -35.5t-37.5 -15.5h-460q-23 0 -37.5 -14.5t-14.5 -36.5v-154q0 -20 14.5 -35.5t37.5 -15.5h145q119 0 220 -45t169 -127z" glyph-name="five" horiz-adv-x="1118" unicode="5"/><glyph d="M549 926q188 0 322.5 -133.5t134.5 -321.5v-14q0 -184 -131.5 -318.5t-313.5 -138.5h-12h-10h-2q-180 0 -311.5 124t-143.5 304v291q0 279 186.5 482.5t456.5 223.5q20 2 36.5 -13t16.5 -38v-133q0 -20 -13 -34.5t-32 -16.5q-98 -10 -183 -60.5t-142 -130.5 q-20 -29 -2 -57.5t51 -21.5q41 6 82 6h10zM770 457v14q0 90 -64.5 154.5t-156.5 64.5h-10q-92 0 -157 -64.5t-65 -154.5v-14q0 -92 64.5 -156.5t157.5 -64.5h10q92 0 156.5 64.5t64.5 156.5z" glyph-name="six" horiz-adv-x="1087" unicode="6"/><glyph d="M897 1430q23 0 37 -14.5t14 -37.5v-100q0 -12 -6 -25l-223 -403q-68 -135 -111 -365.5t-49 -435.5q0 -20 -14.5 -34.5t-36.5 -14.5h-133q-20 0 -35.5 15.5t-15.5 37.5q6 225 56 484.5t130 420.5l2 5l98 178q10 18 0 35.5t-32 17.5h-445q-20 0 -35.5 15.5t-15.5 35.5v133 q0 23 15.5 37.5t35.5 14.5h764z" glyph-name="seven" horiz-adv-x="1030" unicode="7"/><glyph d="M877 745q117 -123 116 -292v-15q0 -176 -126 -305t-302 -133h-55h-10q-174 4 -296 129t-122 299v23q0 172 117 294q27 29 4 60q-82 111 -76 250q8 156 125 264t274 108h23q160 0 276.5 -108.5t122.5 -263.5q6 -139 -76 -250q-22 -31 5 -60zM518 1192q-63 0 -109.5 -46 t-46.5 -110.5t46.5 -109.5t109.5 -45h39q66 0 111 45t45 109.5t-45 110.5t-111 46h-39zM758 428v23q0 82 -56.5 138t-136.5 56h-55q-80 0 -136.5 -56.5t-56.5 -137.5v-23q0 -80 56.5 -136t136.5 -56h55q80 0 136.5 56t56.5 136z" glyph-name="eight" horiz-adv-x="1075" unicode="8"/><glyph d="M1004 999h2v-290q0 -258 -164 -457t-410 -244q-23 -4 -67 -8q-23 -2 -39.5 13.5t-16.5 37.5v133q0 18 12.5 32.5t32.5 16.5q115 12 211.5 81t151.5 173q6 14 -4.5 27.5t-26.5 7.5q-68 -20 -137 -20h-10q-190 0 -323.5 133t-133.5 321v15q0 190 133 323t324 133h10 q180 0 312.5 -124t142.5 -304zM770 956v15q0 92 -64.5 156.5t-156.5 64.5h-10q-92 0 -157 -64.5t-65 -156.5v-15q0 -90 64.5 -154.5t157.5 -64.5h10q92 0 156.5 64.5t64.5 154.5z" glyph-name="nine" horiz-adv-x="1087" unicode="9"/><glyph d="M210 944q-52 0 -90 38t-38 91t38 90t90 37t90 -37t38 -90t-38 -91t-90 -38zM210 387q52 0 90 -37t38 -90t-38 -91t-90 -38t-90 38t-38 91t38 90t90 37z" glyph-name="colon" horiz-adv-x="419" unicode=":"/><glyph d="M210 944q-52 0 -90 38t-38 91t38 90t90 37t90 -37t38 -90t-38 -91t-90 -38zM210 387q52 0 90 -37t38 -90v-70q0 -100 -55 -186q-14 -20 -27 -35q-12 -14 -29.5 -8t-17.5 25v94q0 18 -11.5 32.5t-27.5 18.5q-39 8 -63.5 42t-24.5 75v12q0 53 38 90t90 37z" glyph-name="semicolon" horiz-adv-x="419" unicode=";"/><glyph d="M506 260q53 0 90 -38t37 -90t-37 -90t-90 -38t-90 38t-37 90t37 90t90 38zM686 1434q109 -51 176.5 -154.5t67.5 -228.5v-23q0 -178 -129 -301l-66 -61q-113 -109 -112 -263q0 -14 -9.5 -24t-23.5 -10h-168q-14 0 -24.5 10t-10.5 24q0 123 48 235t138 198l64 61 q57 53 57 131v23q0 82 -61.5 138t-145.5 50q-72 -8 -121 -63.5t-49 -131.5v-47q0 -14 -10 -23t-22 -9h-170q-12 0 -22.5 9t-10.5 23v54q0 125 67.5 228t176.5 155q180 76 360 0z" glyph-name="question" horiz-adv-x="1011" unicode="?"/><glyph d="M1477 834q10 -74 6 -148q-8 -131 -97.5 -202.5t-203.5 -69.5q-96 4 -172 59q-123 -109 -285 -82q-98 16 -172 86q-121 109 -113 271q6 137 107.5 231t243.5 94h165q72 0 121 -49t49 -121v-192q0 -59 64 -62q55 -2 57 51q4 49 -4 101q-20 152 -134 262.5t-265 128.5 q-109 14 -211.5 -20.5t-179 -111.5t-111.5 -178.5t-20 -211.5q18 -152 128.5 -264.5t260.5 -135.5q98 -14 192 11q25 6 45.5 -4.5t28.5 -30.5l43 -107q10 -27 -2 -50t-37 -32q-10 -2 -16 -4q-90 -25 -181 -24q-53 0 -108 8q-231 35 -395 204t-193 400q-20 164 32 317.5 t167.5 269t269.5 167t317 30.5q231 -29 400.5 -193.5t202.5 -397.5zM891 731v107h-103q-45 0 -77.5 -30t-34.5 -73q-2 -45 29.5 -78.5t76.5 -33.5t77 31.5t32 76.5z" glyph-name="at" horiz-adv-x="1566" unicode="@"/><glyph d="M1094 49q4 -20 -6.5 -34.5t-30.5 -14.5h-144q-20 0 -39.5 14.5t-23.5 34.5l-51 184q-6 20 -24.5 35t-39.5 15h-293q-23 0 -41 -14.5t-24 -35.5l-49 -184q-6 -20 -24.5 -34.5t-39.5 -14.5h-143q-20 0 -31.5 14.5t-5.5 34.5l362 1333q6 20 24.5 35t39.5 15h156 q23 0 41 -14.5t24 -35.5zM672 518q20 0 31.5 14.5t5.5 32.5l-107 393q-6 20 -14 20.5t-13 -20.5l-106 -393q-6 -18 5 -32.5t32 -14.5h166z" glyph-name="A" horiz-adv-x="1177" unicode="A"/><glyph d="M1094 49q4 -20 -6.5 -34.5t-30.5 -14.5h-144q-20 0 -39.5 14.5t-23.5 34.5l-51 184q-6 20 -24.5 35t-39.5 15h-293q-23 0 -41 -14.5t-24 -35.5l-49 -184q-6 -20 -24.5 -34.5t-39.5 -14.5h-143q-20 0 -31.5 14.5t-5.5 34.5l362 1333q6 20 24.5 35t39.5 15h156 q23 0 41 -14.5t24 -35.5zM672 518q20 0 31.5 14.5t5.5 32.5l-107 393q-6 20 -14 20.5t-13 -20.5l-106 -393q-6 -18 5 -32.5t32 -14.5h166z" glyph-name="A" horiz-adv-x="1177" unicode="Å"/><glyph d="M1094 49q4 -20 -6.5 -34.5t-30.5 -14.5h-144q-20 0 -39.5 14.5t-23.5 34.5l-51 184q-6 20 -24.5 35t-39.5 15h-293q-23 0 -41 -14.5t-24 -35.5l-49 -184q-6 -20 -24.5 -34.5t-39.5 -14.5h-143q-20 0 -31.5 14.5t-5.5 34.5l362 1333q6 20 24.5 35t39.5 15h156 q23 0 41 -14.5t24 -35.5zM672 518q20 0 31.5 14.5t5.5 32.5l-107 393q-6 20 -14 20.5t-13 -20.5l-106 -393q-6 -18 5 -32.5t32 -14.5h166z" glyph-name="A" horiz-adv-x="1177" unicode="Ä"/><glyph d="M1094 49q4 -20 -6.5 -34.5t-30.5 -14.5h-144q-20 0 -39.5 14.5t-23.5 34.5l-51 184q-6 20 -24.5 35t-39.5 15h-293q-23 0 -41 -14.5t-24 -35.5l-49 -184q-6 -20 -24.5 -34.5t-39.5 -14.5h-143q-20 0 -31.5 14.5t-5.5 34.5l362 1333q6 20 24.5 35t39.5 15h156 q23 0 41 -14.5t24 -35.5zM672 518q20 0 31.5 14.5t5.5 32.5l-107 393q-6 20 -14 20.5t-13 -20.5l-106 -393q-6 -18 5 -32.5t32 -14.5h166z" glyph-name="A" horiz-adv-x="1177" unicode="Ã"/><glyph d="M1094 49q4 -20 -6.5 -34.5t-30.5 -14.5h-144q-20 0 -39.5 14.5t-23.5 34.5l-51 184q-6 20 -24.5 35t-39.5 15h-293q-23 0 -41 -14.5t-24 -35.5l-49 -184q-6 -20 -24.5 -34.5t-39.5 -14.5h-143q-20 0 -31.5 14.5t-5.5 34.5l362 1333q6 20 24.5 35t39.5 15h156 q23 0 41 -14.5t24 -35.5zM672 518q20 0 31.5 14.5t5.5 32.5l-107 393q-6 20 -14 20.5t-13 -20.5l-106 -393q-6 -18 5 -32.5t32 -14.5h166z" glyph-name="A" horiz-adv-x="1177" unicode="Â"/><glyph d="M1094 49q4 -20 -6.5 -34.5t-30.5 -14.5h-144q-20 0 -39.5 14.5t-23.5 34.5l-51 184q-6 20 -24.5 35t-39.5 15h-293q-23 0 -41 -14.5t-24 -35.5l-49 -184q-6 -20 -24.5 -34.5t-39.5 -14.5h-143q-20 0 -31.5 14.5t-5.5 34.5l362 1333q6 20 24.5 35t39.5 15h156 q23 0 41 -14.5t24 -35.5zM672 518q20 0 31.5 14.5t5.5 32.5l-107 393q-6 20 -14 20.5t-13 -20.5l-106 -393q-6 -18 5 -32.5t32 -14.5h166z" glyph-name="A" horiz-adv-x="1177" unicode="Á"/><glyph d="M1094 49q4 -20 -6.5 -34.5t-30.5 -14.5h-144q-20 0 -39.5 14.5t-23.5 34.5l-51 184q-6 20 -24.5 35t-39.5 15h-293q-23 0 -41 -14.5t-24 -35.5l-49 -184q-6 -20 -24.5 -34.5t-39.5 -14.5h-143q-20 0 -31.5 14.5t-5.5 34.5l362 1333q6 20 24.5 35t39.5 15h156 q23 0 41 -14.5t24 -35.5zM672 518q20 0 31.5 14.5t5.5 32.5l-107 393q-6 20 -14 20.5t-13 -20.5l-106 -393q-6 -18 5 -32.5t32 -14.5h166z" glyph-name="A" horiz-adv-x="1177" unicode="À"/><glyph d="M864 727q141 -125 140 -311q0 -170 -122 -291t-292 -125h-2h-455q-20 0 -35.5 15.5t-15.5 37.5v1325q0 23 15.5 38.5t35.5 15.5h393q168 0 292 -114t132 -280q8 -158 -88 -280q-12 -17 2 -31zM317 1143v-258q0 -20 15.5 -35.5t36.5 -15.5h166q80 0 134 59t46 139 q-6 70 -60.5 117t-124.5 47h-161q-20 0 -36 -15t-16 -38zM768 399q8 80 -46 139.5t-134 59.5h-219q-20 0 -36 -15.5t-16 -35.5v-258q0 -23 15.5 -38t36.5 -15h215q70 0 124 46.5t60 116.5z" glyph-name="B" unicode="B"/><glyph d="M911 258q20 -10 26.5 -32.5t-5.5 -43.5q-90 -137 -250 -182q-57 -16 -119 -16h-41q-61 0 -119 16q-141 41 -231 157.5t-90 266.5v582q0 150 90 267.5t231 158.5q59 16 119 16h41q61 0 121 -16q156 -45 246 -179q12 -20 6 -42.5t-27 -32.5l-121 -60q-37 -18 -63 17 q-61 78 -162 77h-41q-84 0 -144.5 -60t-60.5 -146v-582q0 -84 60.5 -144.5t144.5 -60.5h41q102 0 164 80q27 35 64 16z" glyph-name="C" horiz-adv-x="1021" unicode="C"/><glyph d="M911 258q20 -10 26.5 -32.5t-5.5 -43.5q-90 -137 -250 -182q-57 -16 -119 -16h-41q-61 0 -119 16q-141 41 -231 157.5t-90 266.5v582q0 150 90 267.5t231 158.5q59 16 119 16h41q61 0 121 -16q156 -45 246 -179q12 -20 6 -42.5t-27 -32.5l-121 -60q-37 -18 -63 17 q-61 78 -162 77h-41q-84 0 -144.5 -60t-60.5 -146v-582q0 -84 60.5 -144.5t144.5 -60.5h41q102 0 164 80q27 35 64 16z" glyph-name="C" horiz-adv-x="1021" unicode="Ç"/><glyph d="M563 1432q182 0 311.5 -130.5t129.5 -312.5v-536q0 -184 -128 -315.5t-313 -137.5h-430q-20 0 -35.5 15.5t-15.5 35.5v1327q0 23 15.5 38.5t35.5 15.5h430zM768 442v547q0 86 -59.5 146.5t-145.5 60.5h-194q-20 0 -36 -15.5t-16 -37.5v-854q0 -23 15.5 -38t36.5 -15h194 q86 0 145.5 60t59.5 146z" glyph-name="D" unicode="D"/><glyph d="M369 1196q-23 0 -37.5 -15.5t-14.5 -35.5v-260q0 -23 14.5 -37t37.5 -14h264q20 0 35.5 -15.5t15.5 -36.5v-133q0 -23 -15.5 -37t-35.5 -14h-264q-23 0 -37.5 -15.5t-14.5 -35.5v-260q0 -20 14.5 -35.5t37.5 -15.5h467q20 0 35.5 -14.5t15.5 -35.5v-135 q0 -20 -15.5 -35.5t-35.5 -15.5h-703q-23 0 -37 15.5t-14 35.5v1329q0 20 14.5 36t36.5 16h703q20 0 35.5 -15.5t15.5 -36.5v-135q0 -20 -15.5 -34.5t-35.5 -14.5h-467z" glyph-name="E" horiz-adv-x="968" unicode="E"/><glyph d="M369 1196q-23 0 -37.5 -15.5t-14.5 -35.5v-260q0 -23 14.5 -37t37.5 -14h264q20 0 35.5 -15.5t15.5 -36.5v-133q0 -23 -15.5 -37t-35.5 -14h-264q-23 0 -37.5 -15.5t-14.5 -35.5v-260q0 -20 14.5 -35.5t37.5 -15.5h467q20 0 35.5 -14.5t15.5 -35.5v-135 q0 -20 -15.5 -35.5t-35.5 -15.5h-703q-23 0 -37 15.5t-14 35.5v1329q0 20 14.5 36t36.5 16h703q20 0 35.5 -15.5t15.5 -36.5v-135q0 -20 -15.5 -34.5t-35.5 -14.5h-467z" glyph-name="E" horiz-adv-x="968" unicode="Ë"/><glyph d="M369 1196q-23 0 -37.5 -15.5t-14.5 -35.5v-260q0 -23 14.5 -37t37.5 -14h264q20 0 35.5 -15.5t15.5 -36.5v-133q0 -23 -15.5 -37t-35.5 -14h-264q-23 0 -37.5 -15.5t-14.5 -35.5v-260q0 -20 14.5 -35.5t37.5 -15.5h467q20 0 35.5 -14.5t15.5 -35.5v-135 q0 -20 -15.5 -35.5t-35.5 -15.5h-703q-23 0 -37 15.5t-14 35.5v1329q0 20 14.5 36t36.5 16h703q20 0 35.5 -15.5t15.5 -36.5v-135q0 -20 -15.5 -34.5t-35.5 -14.5h-467z" glyph-name="E" horiz-adv-x="968" unicode="Ê"/><glyph d="M369 1196q-23 0 -37.5 -15.5t-14.5 -35.5v-260q0 -23 14.5 -37t37.5 -14h264q20 0 35.5 -15.5t15.5 -36.5v-133q0 -23 -15.5 -37t-35.5 -14h-264q-23 0 -37.5 -15.5t-14.5 -35.5v-260q0 -20 14.5 -35.5t37.5 -15.5h467q20 0 35.5 -14.5t15.5 -35.5v-135 q0 -20 -15.5 -35.5t-35.5 -15.5h-703q-23 0 -37 15.5t-14 35.5v1329q0 20 14.5 36t36.5 16h703q20 0 35.5 -15.5t15.5 -36.5v-135q0 -20 -15.5 -34.5t-35.5 -14.5h-467z" glyph-name="E" horiz-adv-x="968" unicode="É"/><glyph d="M369 1196q-23 0 -37.5 -15.5t-14.5 -35.5v-260q0 -23 14.5 -37t37.5 -14h264q20 0 35.5 -15.5t15.5 -36.5v-133q0 -23 -15.5 -37t-35.5 -14h-264q-23 0 -37.5 -15.5t-14.5 -35.5v-260q0 -20 14.5 -35.5t37.5 -15.5h467q20 0 35.5 -14.5t15.5 -35.5v-135 q0 -20 -15.5 -35.5t-35.5 -15.5h-703q-23 0 -37 15.5t-14 35.5v1329q0 20 14.5 36t36.5 16h703q20 0 35.5 -15.5t15.5 -36.5v-135q0 -20 -15.5 -34.5t-35.5 -14.5h-467z" glyph-name="E" horiz-adv-x="968" unicode="È"/><glyph d="M836 1432q20 0 35.5 -15.5t15.5 -36.5v-135q0 -20 -15.5 -34.5t-35.5 -14.5h-467q-23 0 -37.5 -15.5t-14.5 -35.5v-260q0 -23 14.5 -37t37.5 -14h264q20 0 35.5 -15.5t15.5 -36.5v-133q0 -23 -15.5 -37t-35.5 -14h-264q-23 0 -37.5 -15.5t-14.5 -35.5v-496 q0 -20 -14 -35.5t-37 -15.5h-133q-23 0 -37 15.5t-14 35.5v1329q0 20 14.5 36t36.5 16h703z" glyph-name="F" horiz-adv-x="968" unicode="F"/><glyph d="M956 834q20 0 36 -15.5t16 -36.5v-348q0 -154 -91.5 -273.5t-232.5 -160.5q-59 -16 -119 -16h-41q-61 0 -118 16q-141 41 -232.5 161t-91.5 273v563q0 154 91 274t233 161q57 16 118 16h41q59 0 119 -16q139 -41 229 -158q14 -16 9.5 -40t-23.5 -34l-117 -67 q-37 -23 -65 10q-61 70 -152 69h-41q-86 0 -146.5 -63.5t-60.5 -151.5v-563q0 -88 60.5 -151.5t146.5 -63.5h41q86 0 146.5 63.5t60.5 151.5v113q0 20 -15.5 35.5t-35.5 15.5h-154q-20 0 -35.5 15.5t-15.5 35.5v133q0 20 15.5 36t35.5 16h389z" glyph-name="G" horiz-adv-x="1089" unicode="G"/><glyph d="M954 1432q20 0 35 -15.5t15 -36.5v-1329q0 -20 -14.5 -35.5t-35.5 -15.5h-135q-20 0 -35.5 15.5t-15.5 35.5v496q0 20 -14.5 35.5t-34.5 15.5h-350q-23 0 -37.5 -15.5t-14.5 -35.5v-496q0 -20 -14 -35.5t-37 -15.5h-133q-23 0 -37 15.5t-14 35.5v1329q0 20 14.5 36 t36.5 16h133q23 0 37 -15.5t14 -36.5v-495q0 -23 14.5 -37t37.5 -14h350q20 0 34.5 14t14.5 37v495q0 20 15.5 36t35.5 16h135z" glyph-name="H" unicode="H"/><glyph d="M328 1432q20 0 35.5 -15.5t15.5 -38.5v-1333q0 -23 -15.5 -38t-35.5 -15h-133q-20 0 -36 15.5t-16 37.5v1333q0 23 15.5 38.5t36.5 15.5h133z" glyph-name="I" horiz-adv-x="522" unicode="I"/><glyph d="M328 1432q20 0 35.5 -15.5t15.5 -38.5v-1333q0 -23 -15.5 -38t-35.5 -15h-133q-20 0 -36 15.5t-16 37.5v1333q0 23 15.5 38.5t36.5 15.5h133z" glyph-name="I" horiz-adv-x="522" unicode="Ï"/><glyph d="M328 1432q20 0 35.5 -15.5t15.5 -38.5v-1333q0 -23 -15.5 -38t-35.5 -15h-133q-20 0 -36 15.5t-16 37.5v1333q0 23 15.5 38.5t36.5 15.5h133z" glyph-name="I" horiz-adv-x="522" unicode="Î"/><glyph d="M328 1432q20 0 35.5 -15.5t15.5 -38.5v-1333q0 -23 -15.5 -38t-35.5 -15h-133q-20 0 -36 15.5t-16 37.5v1333q0 23 15.5 38.5t36.5 15.5h133z" glyph-name="I" horiz-adv-x="522" unicode="Í"/><glyph d="M328 1432q20 0 35.5 -15.5t15.5 -38.5v-1333q0 -23 -15.5 -38t-35.5 -15h-133q-20 0 -36 15.5t-16 37.5v1333q0 23 15.5 38.5t36.5 15.5h133z" glyph-name="I" horiz-adv-x="522" unicode="Ì"/><glyph d="M952 1430q23 0 37.5 -14.5t14.5 -37.5v-960q0 -184 -129.5 -313.5t-311.5 -129.5h-41q-182 0 -311 129t-129 314v12q0 23 15.5 37t35.5 14h133q20 0 35.5 -14t15.5 -37v-12q0 -86 60.5 -146.5t144.5 -60.5h41q86 0 145.5 60.5t59.5 146.5v960q0 23 15.5 37.5t37.5 14.5 h131z" glyph-name="J" unicode="J"/><glyph d="M1032 45q8 -18 1 -31.5t-27 -13.5h-168q-20 0 -43 13.5t-33 31.5l-305 551q-8 18 -24.5 19t-29.5 -15l-55 -74q-31 -39 -31 -90v-385q0 -20 -14 -35.5t-37 -15.5h-133q-23 0 -37 15.5t-14 35.5v1329q0 20 14.5 35t36.5 15h133q23 0 37 -14.5t14 -35.5v-450q0 -23 9.5 -24 t21.5 22l352 471q39 33 82 33h193q20 0 26.5 -12.5t-6.5 -28.5l-377 -502q-12 -18 -14 -43t8 -43z" glyph-name="K" horiz-adv-x="1118" unicode="K"/><glyph d="M836 236q20 0 35.5 -14.5t15.5 -35.5v-135q0 -20 -15.5 -35.5t-35.5 -15.5h-703q-23 0 -37 15.5t-14 35.5v1329q0 20 14.5 35t36.5 15h133q23 0 37 -14.5t14 -35.5v-1093q0 -20 14.5 -35.5t37.5 -15.5h467z" glyph-name="L" horiz-adv-x="968" unicode="L"/><glyph d="M1104 1432q20 0 34.5 -15.5t14.5 -36.5v-1329q0 -20 -14.5 -35.5t-34.5 -15.5h-135q-20 0 -35.5 15.5t-15.5 35.5v631q0 20 -3.5 21.5t-9.5 -19.5l-162 -623q-6 -18 -24.5 -32.5t-38.5 -14.5h-123q-20 0 -39.5 14.5t-23.5 32.5l-164 623q-4 20 -8.5 19t-4.5 -21v-631 q0 -20 -14 -35.5t-37 -15.5h-133q-23 0 -37 15.5t-14 35.5v1329q0 20 14.5 36t36.5 16h193q20 0 38.5 -14.5t24.5 -35.5l215 -815q6 -20 13.5 -20t13.5 20l217 815q4 20 22.5 35t40.5 15h193z" glyph-name="M" horiz-adv-x="1234" unicode="M"/><glyph d="M1020 1380l2 -1329q0 -20 -15.5 -35.5t-35.5 -15.5h-117q-20 0 -41.5 13.5t-32.5 31.5l-438 819q-10 18 -17.5 16.5t-7.5 -22.5v-807q0 -20 -14 -35.5t-37 -15.5h-133q-23 0 -37 15.5t-14 35.5v1329q0 20 14.5 36t36.5 16h121q20 0 42.5 -13.5t31.5 -32.5l434 -808 q10 -18 17 -16.5t7 22.5l-2 796q0 20 14.5 35t37.5 15h133q20 0 35.5 -15t15.5 -35z" glyph-name="N" horiz-adv-x="1103" unicode="N"/><glyph d="M1020 1380l2 -1329q0 -20 -15.5 -35.5t-35.5 -15.5h-117q-20 0 -41.5 13.5t-32.5 31.5l-438 819q-10 18 -17.5 16.5t-7.5 -22.5v-807q0 -20 -14 -35.5t-37 -15.5h-133q-23 0 -37 15.5t-14 35.5v1329q0 20 14.5 36t36.5 16h121q20 0 42.5 -13.5t31.5 -32.5l434 -808 q10 -18 17 -16.5t7 22.5l-2 796q0 20 14.5 35t37.5 15h133q20 0 35.5 -15t15.5 -35z" glyph-name="N" horiz-adv-x="1103" unicode="Ñ"/><glyph d="M563 1432q182 0 311.5 -130.5t129.5 -312.5v-581q0 -135 -75 -246t-196 -162q-82 -33 -170 -33h-41q-88 0 -168 33q-121 51 -196.5 161.5t-75.5 246.5v581q0 182 129 312.5t311 130.5h41zM768 408v581q0 86 -59.5 146.5t-145.5 60.5h-41q-84 0 -144.5 -60.5t-60.5 -146.5 v-581q0 -84 60.5 -144.5t144.5 -60.5h41q86 0 145.5 60.5t59.5 144.5z" glyph-name="O" unicode="O"/><glyph d="M563 1432q182 0 311.5 -130.5t129.5 -312.5v-581q0 -135 -75 -246t-196 -162q-82 -33 -170 -33h-41q-88 0 -168 33q-121 51 -196.5 161.5t-75.5 246.5v581q0 182 129 312.5t311 130.5h41zM768 408v581q0 86 -59.5 146.5t-145.5 60.5h-41q-84 0 -144.5 -60.5t-60.5 -146.5 v-581q0 -84 60.5 -144.5t144.5 -60.5h41q86 0 145.5 60.5t59.5 144.5z" glyph-name="O" unicode="Ø"/><glyph d="M563 1432q182 0 311.5 -130.5t129.5 -312.5v-581q0 -135 -75 -246t-196 -162q-82 -33 -170 -33h-41q-88 0 -168 33q-121 51 -196.5 161.5t-75.5 246.5v581q0 182 129 312.5t311 130.5h41zM768 408v581q0 86 -59.5 146.5t-145.5 60.5h-41q-84 0 -144.5 -60.5t-60.5 -146.5 v-581q0 -84 60.5 -144.5t144.5 -60.5h41q86 0 145.5 60.5t59.5 144.5z" glyph-name="O" unicode="Ö"/><glyph d="M563 1432q182 0 311.5 -130.5t129.5 -312.5v-581q0 -135 -75 -246t-196 -162q-82 -33 -170 -33h-41q-88 0 -168 33q-121 51 -196.5 161.5t-75.5 246.5v581q0 182 129 312.5t311 130.5h41zM768 408v581q0 86 -59.5 146.5t-145.5 60.5h-41q-84 0 -144.5 -60.5t-60.5 -146.5 v-581q0 -84 60.5 -144.5t144.5 -60.5h41q86 0 145.5 60.5t59.5 144.5z" glyph-name="O" unicode="Õ"/><glyph d="M563 1432q182 0 311.5 -130.5t129.5 -312.5v-581q0 -135 -75 -246t-196 -162q-82 -33 -170 -33h-41q-88 0 -168 33q-121 51 -196.5 161.5t-75.5 246.5v581q0 182 129 312.5t311 130.5h41zM768 408v581q0 86 -59.5 146.5t-145.5 60.5h-41q-84 0 -144.5 -60.5t-60.5 -146.5 v-581q0 -84 60.5 -144.5t144.5 -60.5h41q86 0 145.5 60.5t59.5 144.5z" glyph-name="O" unicode="Ô"/><glyph d="M563 1432q182 0 311.5 -130.5t129.5 -312.5v-581q0 -135 -75 -246t-196 -162q-82 -33 -170 -33h-41q-88 0 -168 33q-121 51 -196.5 161.5t-75.5 246.5v581q0 182 129 312.5t311 130.5h41zM768 408v581q0 86 -59.5 146.5t-145.5 60.5h-41q-84 0 -144.5 -60.5t-60.5 -146.5 v-581q0 -84 60.5 -144.5t144.5 -60.5h41q86 0 145.5 60.5t59.5 144.5z" glyph-name="O" unicode="Ó"/><glyph d="M563 1432q182 0 311.5 -130.5t129.5 -312.5v-581q0 -135 -75 -246t-196 -162q-82 -33 -170 -33h-41q-88 0 -168 33q-121 51 -196.5 161.5t-75.5 246.5v581q0 182 129 312.5t311 130.5h41zM768 408v581q0 86 -59.5 146.5t-145.5 60.5h-41q-84 0 -144.5 -60.5t-60.5 -146.5 v-581q0 -84 60.5 -144.5t144.5 -60.5h41q86 0 145.5 60.5t59.5 144.5z" glyph-name="O" unicode="Ò"/><glyph d="M506 1432q193 0 328 -136.5t135 -326.5v-162q0 -182 -128 -311t-311 -129h-161q-20 0 -36 -15.5t-16 -36.5v-264q0 -20 -15 -35.5t-36 -15.5h-133q-20 0 -35.5 15.5t-15.5 35.5v1327q0 23 15.5 38.5t35.5 15.5h373zM733 807v162q0 94 -66.5 160.5t-160.5 66.5h-137 q-20 0 -36 -15.5t-16 -37.5v-490q0 -20 15.5 -35.5t36.5 -15.5h161q84 0 143.5 59.5t59.5 145.5z" glyph-name="P" horiz-adv-x="1050" unicode="P"/><glyph d="M836 78q-16 -12 -18.5 -32.5t9.5 -37.5l4 -8l43 -59q12 -16 9.5 -38t-21.5 -34l-106 -76q-18 -12 -39 -9t-33 19l-115 160q-14 20 -41 21h-6q-61 0 -119 16q-141 41 -231 157.5t-90 266.5v582q0 150 90 267.5t231 158.5q59 16 119 16h41q61 0 121 -16q139 -41 229.5 -159 t90.5 -267v-582q0 -102 -45 -193.5t-123 -152.5zM768 424v582q0 86 -59.5 146t-145.5 60h-41q-84 0 -144.5 -60t-60.5 -146v-582q0 -84 60.5 -144.5t144.5 -60.5h41q86 0 145.5 60.5t59.5 144.5z" glyph-name="Q" unicode="Q"/><glyph d="M788 451q-16 -10 -20 -30t6 -38l176 -307q14 -25 0 -50.5t-43 -25.5h-155q-29 0 -43 27l-183 315q-14 25 -43 25h-114q-20 0 -36 -14.5t-16 -37.5v-264q0 -20 -15 -35.5t-36 -15.5h-133q-20 0 -35.5 15.5t-15.5 35.5v1329q0 20 15.5 36t35.5 16h373q193 0 328 -136.5 t135 -326.5v-162q0 -109 -48.5 -202t-132.5 -154zM733 807v162q0 94 -66.5 160.5t-160.5 66.5h-137q-20 0 -36 -15.5t-16 -35.5v-492q0 -20 15.5 -35.5t36.5 -15.5h161q84 0 143.5 59.5t59.5 145.5z" glyph-name="R" horiz-adv-x="1050" unicode="R"/><glyph d="M555 846q49 -16 75.5 -26.5t76 -33t79 -44t67.5 -56.5t59.5 -75t37 -95t15.5 -119q0 -139 -95.5 -248.5t-228.5 -148.5q-57 -16 -113 -16q-76 0 -147 16q-174 41 -275 162q-14 18 -10 40.5t23 35.5l114 71q35 20 66 -8q80 -82 229 -82q68 0 134.5 52.5t66.5 125.5 q0 90 -51 133t-199 93q-49 16 -75.5 26t-74.5 31.5t-77 42t-65.5 54.5t-56 71t-34 90t-14.5 115q0 137 88 239.5t215 139.5q59 16 117 16q63 0 127 -16q158 -43 260 -162q14 -18 10 -41t-22 -35l-115 -74q-35 -23 -64 8q-80 84 -196 84q-59 0 -122 -45t-63 -114 q0 -84 48.5 -122t189.5 -85z" glyph-name="S" horiz-adv-x="1046" unicode="S"/><glyph d="M840 1432q20 0 35.5 -15.5t15.5 -36.5v-135q0 -20 -15.5 -34.5t-35.5 -14.5h-185q-23 0 -37 -15.5t-14 -35.5v-1094q0 -20 -15.5 -35.5t-35.5 -15.5h-133q-23 0 -37 15.5t-14 35.5v1094q0 20 -15.5 35.5t-36.5 15.5h-184q-23 0 -37 14.5t-14 34.5v135q0 20 14.5 36 t36.5 16h707z" glyph-name="T" horiz-adv-x="972" unicode="T"/><glyph d="M954 1430q20 0 35 -14.5t15 -35.5v-956q0 -150 -90.5 -266.5t-229.5 -157.5q-59 -16 -121 -16h-41q-61 0 -119 16q-141 41 -231 157.5t-90 266.5v956q0 20 15.5 35t35.5 15h133q20 0 35.5 -14.5t15.5 -35.5v-956q0 -84 60.5 -144.5t144.5 -60.5h41q86 0 145.5 60.5 t59.5 144.5v956q0 20 15.5 35t35.5 15h135z" glyph-name="U" unicode="U"/><glyph d="M954 1430q20 0 35 -14.5t15 -35.5v-956q0 -150 -90.5 -266.5t-229.5 -157.5q-59 -16 -121 -16h-41q-61 0 -119 16q-141 41 -231 157.5t-90 266.5v956q0 20 15.5 35t35.5 15h133q20 0 35.5 -14.5t15.5 -35.5v-956q0 -84 60.5 -144.5t144.5 -60.5h41q86 0 145.5 60.5 t59.5 144.5v956q0 20 15.5 35t35.5 15h135z" glyph-name="U" unicode="Ü"/><glyph d="M954 1430q20 0 35 -14.5t15 -35.5v-956q0 -150 -90.5 -266.5t-229.5 -157.5q-59 -16 -121 -16h-41q-61 0 -119 16q-141 41 -231 157.5t-90 266.5v956q0 20 15.5 35t35.5 15h133q20 0 35.5 -14.5t15.5 -35.5v-956q0 -84 60.5 -144.5t144.5 -60.5h41q86 0 145.5 60.5 t59.5 144.5v956q0 20 15.5 35t35.5 15h135z" glyph-name="U" unicode="Û"/><glyph d="M954 1430q20 0 35 -14.5t15 -35.5v-956q0 -150 -90.5 -266.5t-229.5 -157.5q-59 -16 -121 -16h-41q-61 0 -119 16q-141 41 -231 157.5t-90 266.5v956q0 20 15.5 35t35.5 15h133q20 0 35.5 -14.5t15.5 -35.5v-956q0 -84 60.5 -144.5t144.5 -60.5h41q86 0 145.5 60.5 t59.5 144.5v956q0 20 15.5 35t35.5 15h135z" glyph-name="U" unicode="Ú"/><glyph d="M954 1430q20 0 35 -14.5t15 -35.5v-956q0 -150 -90.5 -266.5t-229.5 -157.5q-59 -16 -121 -16h-41q-61 0 -119 16q-141 41 -231 157.5t-90 266.5v956q0 20 15.5 35t35.5 15h133q20 0 35.5 -14.5t15.5 -35.5v-956q0 -84 60.5 -144.5t144.5 -60.5h41q86 0 145.5 60.5 t59.5 144.5v956q0 20 15.5 35t35.5 15h135z" glyph-name="U" unicode="Ù"/><glyph d="M1057 1432q20 0 30.5 -14.5t6.5 -35.5l-363 -1333q-6 -20 -24.5 -34.5t-40.5 -14.5h-156q-20 0 -38.5 14.5t-25.5 34.5l-362 1333q-6 20 5 35t32 15h143q20 0 39 -14.5t25 -35.5l247 -909q6 -20 13.5 -20t13.5 20l248 909q4 20 23.5 35t39.5 15h144z" glyph-name="V" horiz-adv-x="1177" unicode="V"/><glyph d="M1415 1432q23 0 34 -15.5t9 -36.5l-241 -1329q-4 -20 -21.5 -35.5t-38.5 -15.5h-194q-20 0 -38 15.5t-22 35.5l-125 690q-2 20 -8 20.5t-8 -20.5l-125 -690q-4 -20 -21.5 -35.5t-37.5 -15.5h-195q-20 0 -37.5 15.5t-21.5 35.5l-242 1329q-2 20 9 36t34 16h137 q20 0 37.5 -15.5t22.5 -36.5l149 -821q4 -20 9 -20t9 20l148 821q4 20 21.5 36t37.5 16h148q20 0 37.5 -15.5t21.5 -36.5l148 -821q4 -20 9 -20t9 20l150 821q4 20 21 36t38 16h137z" glyph-name="W" horiz-adv-x="1540" unicode="W"/><glyph d="M741 672l338 -627q10 -18 2 -31.5t-28 -13.5h-168q-20 0 -42 13.5t-32 31.5l-205 379q-8 18 -22.5 18t-24.5 -18l-205 -379q-8 -18 -30.5 -31.5t-42.5 -13.5h-166q-23 0 -30 13.5t3 31.5l338 627q8 18 8 43.5t-8 44.5l-338 626q-10 18 -3 32t30 14h166q20 0 41.5 -13.5 t31.5 -32.5l205 -378q10 -18 24.5 -18.5t22.5 18.5l205 378q10 18 31.5 32t42.5 14h168q20 0 28.5 -13.5t-2.5 -32.5l-338 -626q-10 -18 -10 -44t10 -44z" glyph-name="X" horiz-adv-x="1165" unicode="X"/><glyph d="M1024 1432q20 0 29.5 -14.5t1.5 -33.5l-348 -897q-18 -47 -19 -96v-340q0 -20 -15.5 -35.5t-35.5 -15.5h-133q-23 0 -37 15.5t-14 35.5v340q0 49 -19 96l-348 897q-8 18 1 33t30 15h151q23 0 42.5 -14.5t27.5 -33.5l215 -548q6 -20 17.5 -20.5t17.5 20.5l215 548 q8 18 27.5 33t39.5 15h154z" glyph-name="Y" horiz-adv-x="1140" unicode="Y"/><glyph d="M1024 1432q20 0 29.5 -14.5t1.5 -33.5l-348 -897q-18 -47 -19 -96v-340q0 -20 -15.5 -35.5t-35.5 -15.5h-133q-23 0 -37 15.5t-14 35.5v340q0 49 -19 96l-348 897q-8 18 1 33t30 15h151q23 0 42.5 -14.5t27.5 -33.5l215 -548q6 -20 17.5 -20.5t17.5 20.5l215 548 q8 18 27.5 33t39.5 15h154z" glyph-name="Y" horiz-adv-x="1140" unicode="Ý"/><glyph d="M881 236q20 0 34.5 -14.5t14.5 -35.5v-135q0 -20 -14.5 -35.5t-34.5 -15.5h-746q-20 0 -35.5 15.5t-15.5 35.5v94q0 49 25 95l505 911q10 18 3 31.5t-29 13.5h-455q-23 0 -37 14.5t-14 34.5v135q0 20 14.5 36t36.5 16h741q20 0 35 -15.5t15 -36.5v-106q0 -51 -25 -94 l-498 -899q-10 -18 -2.5 -31.5t29.5 -13.5h453z" glyph-name="Z" horiz-adv-x="1011" unicode="Z"/><glyph d="M1012 264q20 0 35.5 -14t15.5 -35v-135q0 -20 -15.5 -35.5t-35.5 -15.5h-879q-23 0 -37 15t-14 36v135q0 20 14.5 34.5t36.5 14.5h879z" glyph-name="underscore" horiz-adv-x="1144" unicode="_"/><glyph d="M1094 61q4 -20 -6.5 -34.5t-30.5 -14.5h-144q-20 0 -39.5 14.5t-23.5 34.5l-51 185q-6 18 -24.5 32.5t-39.5 14.5h-293q-23 0 -41 -14.5t-24 -32.5l-49 -185q-6 -20 -24.5 -34.5t-39.5 -14.5h-143q-20 0 -31.5 14.5t-5.5 34.5l362 1334q6 18 24.5 32.5t39.5 14.5h156 q23 0 41 -14.5t24 -32.5zM672 528q20 0 31.5 14.5t5.5 35.5l-107 393q-6 18 -14 18t-13 -18l-106 -393q-6 -20 5 -35t32 -15h166z" glyph-name="a" horiz-adv-x="1177" unicode="a"/><glyph d="M1094 61q4 -20 -6.5 -34.5t-30.5 -14.5h-144q-20 0 -39.5 14.5t-23.5 34.5l-51 185q-6 18 -24.5 32.5t-39.5 14.5h-293q-23 0 -41 -14.5t-24 -32.5l-49 -185q-6 -20 -24.5 -34.5t-39.5 -14.5h-143q-20 0 -31.5 14.5t-5.5 34.5l362 1334q6 18 24.5 32.5t39.5 14.5h156 q23 0 41 -14.5t24 -32.5zM672 528q20 0 31.5 14.5t5.5 35.5l-107 393q-6 18 -14 18t-13 -18l-106 -393q-6 -20 5 -35t32 -15h166z" glyph-name="a" horiz-adv-x="1177" unicode="å"/><glyph d="M1094 61q4 -20 -6.5 -34.5t-30.5 -14.5h-144q-20 0 -39.5 14.5t-23.5 34.5l-51 185q-6 18 -24.5 32.5t-39.5 14.5h-293q-23 0 -41 -14.5t-24 -32.5l-49 -185q-6 -20 -24.5 -34.5t-39.5 -14.5h-143q-20 0 -31.5 14.5t-5.5 34.5l362 1334q6 18 24.5 32.5t39.5 14.5h156 q23 0 41 -14.5t24 -32.5zM672 528q20 0 31.5 14.5t5.5 35.5l-107 393q-6 18 -14 18t-13 -18l-106 -393q-6 -20 5 -35t32 -15h166z" glyph-name="a" horiz-adv-x="1177" unicode="ä"/><glyph d="M1094 61q4 -20 -6.5 -34.5t-30.5 -14.5h-144q-20 0 -39.5 14.5t-23.5 34.5l-51 185q-6 18 -24.5 32.5t-39.5 14.5h-293q-23 0 -41 -14.5t-24 -32.5l-49 -185q-6 -20 -24.5 -34.5t-39.5 -14.5h-143q-20 0 -31.5 14.5t-5.5 34.5l362 1334q6 18 24.5 32.5t39.5 14.5h156 q23 0 41 -14.5t24 -32.5zM672 528q20 0 31.5 14.5t5.5 35.5l-107 393q-6 18 -14 18t-13 -18l-106 -393q-6 -20 5 -35t32 -15h166z" glyph-name="a" horiz-adv-x="1177" unicode="ã"/><glyph d="M1094 61q4 -20 -6.5 -34.5t-30.5 -14.5h-144q-20 0 -39.5 14.5t-23.5 34.5l-51 185q-6 18 -24.5 32.5t-39.5 14.5h-293q-23 0 -41 -14.5t-24 -32.5l-49 -185q-6 -20 -24.5 -34.5t-39.5 -14.5h-143q-20 0 -31.5 14.5t-5.5 34.5l362 1334q6 18 24.5 32.5t39.5 14.5h156 q23 0 41 -14.5t24 -32.5zM672 528q20 0 31.5 14.5t5.5 35.5l-107 393q-6 18 -14 18t-13 -18l-106 -393q-6 -20 5 -35t32 -15h166z" glyph-name="a" horiz-adv-x="1177" unicode="â"/><glyph d="M1094 61q4 -20 -6.5 -34.5t-30.5 -14.5h-144q-20 0 -39.5 14.5t-23.5 34.5l-51 185q-6 18 -24.5 32.5t-39.5 14.5h-293q-23 0 -41 -14.5t-24 -32.5l-49 -185q-6 -20 -24.5 -34.5t-39.5 -14.5h-143q-20 0 -31.5 14.5t-5.5 34.5l362 1334q6 18 24.5 32.5t39.5 14.5h156 q23 0 41 -14.5t24 -32.5zM672 528q20 0 31.5 14.5t5.5 35.5l-107 393q-6 18 -14 18t-13 -18l-106 -393q-6 -20 5 -35t32 -15h166z" glyph-name="a" horiz-adv-x="1177" unicode="á"/><glyph d="M1094 61q4 -20 -6.5 -34.5t-30.5 -14.5h-144q-20 0 -39.5 14.5t-23.5 34.5l-51 185q-6 18 -24.5 32.5t-39.5 14.5h-293q-23 0 -41 -14.5t-24 -32.5l-49 -185q-6 -20 -24.5 -34.5t-39.5 -14.5h-143q-20 0 -31.5 14.5t-5.5 34.5l362 1334q6 18 24.5 32.5t39.5 14.5h156 q23 0 41 -14.5t24 -32.5zM672 528q20 0 31.5 14.5t5.5 35.5l-107 393q-6 18 -14 18t-13 -18l-106 -393q-6 -20 5 -35t32 -15h166z" glyph-name="a" horiz-adv-x="1177" unicode="à"/><glyph d="M864 727q141 -125 140 -311q0 -170 -122 -291t-292 -125h-2h-455q-20 0 -35.5 15.5t-15.5 35.5v1327q0 20 15.5 36t35.5 16h393q168 0 292 -114t132 -280q8 -156 -88 -280q-12 -15 2 -29zM317 1143v-258q0 -23 15.5 -37t36.5 -14h166q80 0 134 58t46 138q-6 70 -60.5 117 t-124.5 47h-161q-20 0 -36 -15.5t-16 -35.5zM768 399q8 80 -46 139.5t-134 59.5h-219q-20 0 -36 -15.5t-16 -37.5v-258q0 -20 15.5 -35.5t36.5 -15.5h215q70 0 124 46.5t60 116.5z" glyph-name="b" unicode="b"/><glyph d="M911 256q20 -10 26.5 -32.5t-5.5 -41.5q-90 -137 -250 -182q-57 -16 -119 -16h-41q-61 0 -119 16q-141 39 -231 156.5t-90 267.5v582q0 150 90 267.5t231 156.5q59 16 119 16h41q61 0 121 -16q156 -43 246 -179q12 -18 6 -40.5t-27 -32.5l-121 -60q-37 -18 -63 15 q-61 78 -162 77h-41q-84 0 -144.5 -59t-60.5 -145v-582q0 -84 60.5 -144.5t144.5 -60.5h41q102 0 164 80q27 35 64 16z" glyph-name="c" horiz-adv-x="1021" unicode="c"/><glyph d="M911 256q20 -10 26.5 -32.5t-5.5 -41.5q-90 -137 -250 -182q-57 -16 -119 -16h-41q-61 0 -119 16q-141 39 -231 156.5t-90 267.5v582q0 150 90 267.5t231 156.5q59 16 119 16h41q61 0 121 -16q156 -43 246 -179q12 -18 6 -40.5t-27 -32.5l-121 -60q-37 -18 -63 15 q-61 78 -162 77h-41q-84 0 -144.5 -59t-60.5 -145v-582q0 -84 60.5 -144.5t144.5 -60.5h41q102 0 164 80q27 35 64 16z" glyph-name="c" horiz-adv-x="1021" unicode="ç"/><glyph d="M563 1430q182 0 311.5 -129.5t129.5 -311.5v-536q0 -184 -128 -316.5t-313 -136.5h-430q-20 0 -35.5 15.5t-15.5 35.5v1327q0 20 15.5 36t35.5 16h430zM768 440v549q0 84 -59.5 144.5t-145.5 60.5h-194q-20 0 -36 -15.5t-16 -35.5v-856q0 -20 15.5 -35.5t36.5 -15.5h194 q86 0 145.5 60t59.5 144z" glyph-name="d" unicode="d"/><glyph d="M82 412v968q0 20 14.5 35t36.5 15h629q20 0 34.5 -14.5t14.5 -35.5v-135q0 -20 -14.5 -35.5t-34.5 -15.5h-393q-23 0 -37.5 -14.5t-14.5 -34.5v-82q0 -20 14.5 -34.5t37.5 -14.5h219q20 0 35.5 -15.5t15.5 -35.5v-136q0 -20 -15.5 -34.5t-35.5 -14.5h-219 q-23 0 -37.5 -15t-14.5 -36v-80q0 -20 14.5 -35.5t37.5 -15.5h393q20 0 34.5 -14.5t14.5 -34.5v-135q0 -20 -14.5 -36t-34.5 -16h-629q-23 0 -37 16t-14 36zM82 51v133q0 23 14.5 37.5t36.5 14.5h629q20 0 34.5 -14.5t14.5 -37.5v-133q0 -23 -14.5 -37t-34.5 -14h-629 q-23 0 -37 14t-14 37z" glyph-name="e" horiz-adv-x="892" unicode="e"/><glyph d="M82 412v968q0 20 14.5 35t36.5 15h629q20 0 34.5 -14.5t14.5 -35.5v-135q0 -20 -14.5 -35.5t-34.5 -15.5h-393q-23 0 -37.5 -14.5t-14.5 -34.5v-82q0 -20 14.5 -34.5t37.5 -14.5h219q20 0 35.5 -15.5t15.5 -35.5v-136q0 -20 -15.5 -34.5t-35.5 -14.5h-219 q-23 0 -37.5 -15t-14.5 -36v-80q0 -20 14.5 -35.5t37.5 -15.5h393q20 0 34.5 -14.5t14.5 -34.5v-135q0 -20 -14.5 -36t-34.5 -16h-629q-23 0 -37 16t-14 36zM82 51v133q0 23 14.5 37.5t36.5 14.5h629q20 0 34.5 -14.5t14.5 -37.5v-133q0 -23 -14.5 -37t-34.5 -14h-629 q-23 0 -37 14t-14 37z" glyph-name="e" horiz-adv-x="892" unicode="ë"/><glyph d="M82 412v968q0 20 14.5 35t36.5 15h629q20 0 34.5 -14.5t14.5 -35.5v-135q0 -20 -14.5 -35.5t-34.5 -15.5h-393q-23 0 -37.5 -14.5t-14.5 -34.5v-82q0 -20 14.5 -34.5t37.5 -14.5h219q20 0 35.5 -15.5t15.5 -35.5v-136q0 -20 -15.5 -34.5t-35.5 -14.5h-219 q-23 0 -37.5 -15t-14.5 -36v-80q0 -20 14.5 -35.5t37.5 -15.5h393q20 0 34.5 -14.5t14.5 -34.5v-135q0 -20 -14.5 -36t-34.5 -16h-629q-23 0 -37 16t-14 36zM82 51v133q0 23 14.5 37.5t36.5 14.5h629q20 0 34.5 -14.5t14.5 -37.5v-133q0 -23 -14.5 -37t-34.5 -14h-629 q-23 0 -37 14t-14 37z" glyph-name="e" horiz-adv-x="892" unicode="ê"/><glyph d="M82 412v968q0 20 14.5 35t36.5 15h629q20 0 34.5 -14.5t14.5 -35.5v-135q0 -20 -14.5 -35.5t-34.5 -15.5h-393q-23 0 -37.5 -14.5t-14.5 -34.5v-82q0 -20 14.5 -34.5t37.5 -14.5h219q20 0 35.5 -15.5t15.5 -35.5v-136q0 -20 -15.5 -34.5t-35.5 -14.5h-219 q-23 0 -37.5 -15t-14.5 -36v-80q0 -20 14.5 -35.5t37.5 -15.5h393q20 0 34.5 -14.5t14.5 -34.5v-135q0 -20 -14.5 -36t-34.5 -16h-629q-23 0 -37 16t-14 36zM82 51v133q0 23 14.5 37.5t36.5 14.5h629q20 0 34.5 -14.5t14.5 -37.5v-133q0 -23 -14.5 -37t-34.5 -14h-629 q-23 0 -37 14t-14 37z" glyph-name="e" horiz-adv-x="892" unicode="é"/><glyph d="M82 412v968q0 20 14.5 35t36.5 15h629q20 0 34.5 -14.5t14.5 -35.5v-135q0 -20 -14.5 -35.5t-34.5 -15.5h-393q-23 0 -37.5 -14.5t-14.5 -34.5v-82q0 -20 14.5 -34.5t37.5 -14.5h219q20 0 35.5 -15.5t15.5 -35.5v-136q0 -20 -15.5 -34.5t-35.5 -14.5h-219 q-23 0 -37.5 -15t-14.5 -36v-80q0 -20 14.5 -35.5t37.5 -15.5h393q20 0 34.5 -14.5t14.5 -34.5v-135q0 -20 -14.5 -36t-34.5 -16h-629q-23 0 -37 16t-14 36zM82 51v133q0 23 14.5 37.5t36.5 14.5h629q20 0 34.5 -14.5t14.5 -37.5v-133q0 -23 -14.5 -37t-34.5 -14h-629 q-23 0 -37 14t-14 37z" glyph-name="e" horiz-adv-x="892" unicode="è"/><glyph d="M836 1430q20 0 35.5 -14.5t15.5 -35.5v-135q0 -20 -15.5 -35.5t-35.5 -15.5h-467q-23 0 -37.5 -14.5t-14.5 -34.5v-262q0 -20 14.5 -34.5t37.5 -14.5h264q20 0 35.5 -15.5t15.5 -36.5v-135q0 -20 -15.5 -34.5t-35.5 -14.5h-264q-23 0 -37.5 -15.5t-14.5 -35.5v-496 q0 -23 -14 -37t-37 -14h-133q-23 0 -37 14.5t-14 36.5v1329q0 20 14.5 35t36.5 15h703z" glyph-name="f" horiz-adv-x="968" unicode="f"/><glyph d="M956 834q20 0 36 -15.5t16 -36.5v-348q0 -154 -91.5 -273.5t-232.5 -160.5q-57 -16 -119 -16h-41q-61 0 -118 16q-141 41 -232.5 161t-91.5 273v563q0 152 91 273t233 160q57 16 118 16h41q59 0 119 -16q139 -39 229 -156q14 -18 9.5 -41t-23.5 -35l-117 -68 q-37 -20 -65 13q-61 68 -152 67h-41q-86 0 -146.5 -62.5t-60.5 -150.5v-563q0 -90 60.5 -152.5t146.5 -62.5h41q86 0 146.5 62.5t60.5 152.5v113q0 20 -15.5 35.5t-35.5 15.5h-154q-20 0 -35.5 14.5t-15.5 36.5v133q0 20 15.5 36t35.5 16h389z" glyph-name="g" horiz-adv-x="1089" unicode="g"/><glyph d="M954 1430q20 0 35 -14.5t15 -35.5v-1329q0 -23 -14.5 -37t-35.5 -14h-135q-20 0 -35.5 14.5t-15.5 36.5v496q0 20 -14.5 35.5t-34.5 15.5h-350q-23 0 -37.5 -15.5t-14.5 -35.5v-496q0 -23 -14 -37t-37 -14h-133q-23 0 -37 14.5t-14 36.5v1329q0 20 14.5 35t36.5 15h133 q23 0 37 -14.5t14 -35.5v-497q0 -20 14.5 -34.5t37.5 -14.5h350q20 0 34.5 14t14.5 35v497q0 20 15.5 35t35.5 15h135z" glyph-name="h" unicode="h"/><glyph d="M328 1430q20 0 35.5 -15.5t15.5 -36.5v-1335q0 -20 -15.5 -35.5t-35.5 -15.5h-133q-20 0 -36 15.5t-16 35.5v1335q0 20 15.5 36t36.5 16h133z" glyph-name="i" horiz-adv-x="522" unicode="i"/><glyph d="M328 1430q20 0 35.5 -15.5t15.5 -36.5v-1335q0 -20 -15.5 -35.5t-35.5 -15.5h-133q-20 0 -36 15.5t-16 35.5v1335q0 20 15.5 36t36.5 16h133z" glyph-name="i" horiz-adv-x="522" unicode="ï"/><glyph d="M328 1430q20 0 35.5 -15.5t15.5 -36.5v-1335q0 -20 -15.5 -35.5t-35.5 -15.5h-133q-20 0 -36 15.5t-16 35.5v1335q0 20 15.5 36t36.5 16h133z" glyph-name="i" horiz-adv-x="522" unicode="î"/><glyph d="M328 1430q20 0 35.5 -15.5t15.5 -36.5v-1335q0 -20 -15.5 -35.5t-35.5 -15.5h-133q-20 0 -36 15.5t-16 35.5v1335q0 20 15.5 36t36.5 16h133z" glyph-name="i" horiz-adv-x="522" unicode="í"/><glyph d="M328 1430q20 0 35.5 -15.5t15.5 -36.5v-1335q0 -20 -15.5 -35.5t-35.5 -15.5h-133q-20 0 -36 15.5t-16 35.5v1335q0 20 15.5 36t36.5 16h133z" glyph-name="i" horiz-adv-x="522" unicode="ì"/><glyph d="M952 1430q23 0 37.5 -15.5t14.5 -36.5v-962q0 -182 -129.5 -311.5t-311.5 -129.5h-41q-182 0 -311 129t-129 312v14q0 20 15.5 35.5t35.5 15.5h133q20 0 35.5 -15t15.5 -36v-14q0 -84 60.5 -144.5t144.5 -60.5h41q86 0 145.5 60.5t59.5 144.5v962q0 20 15.5 36t37.5 16 h131z" glyph-name="j" unicode="j"/><glyph d="M1032 45q8 -18 1 -31.5t-27 -13.5h-168q-20 0 -43 13.5t-33 31.5l-305 551q-8 18 -24.5 19t-29.5 -15l-55 -74q-31 -41 -31 -90v-387q0 -20 -14 -34.5t-37 -14.5h-133q-23 0 -37 14.5t-14 34.5v1329q0 23 14.5 37.5t36.5 14.5h133q23 0 37 -14.5t14 -37.5v-448 q0 -23 9.5 -24t21.5 22l352 471q39 31 82 31h193q20 0 26.5 -11.5t-6.5 -27.5l-377 -504q-12 -16 -14 -41t8 -43z" glyph-name="k" horiz-adv-x="1118" unicode="k"/><glyph d="M836 236q20 0 35.5 -14.5t15.5 -37.5v-133q0 -23 -15.5 -37t-35.5 -14h-703q-23 0 -37 14.5t-14 36.5v1327q0 23 14.5 37.5t36.5 14.5h133q23 0 37 -14.5t14 -37.5v-1091q0 -23 14.5 -37t37.5 -14h467z" glyph-name="l" horiz-adv-x="968" unicode="l"/><glyph d="M1104 1430q20 0 34.5 -14.5t14.5 -35.5v-1329q0 -23 -14.5 -37t-34.5 -14h-135q-20 0 -35.5 14.5t-15.5 36.5v631q0 20 -3.5 20t-9.5 -20l-162 -621q-6 -20 -24.5 -34.5t-38.5 -14.5h-123q-20 0 -39.5 14.5t-23.5 34.5l-164 621q-4 20 -8.5 20t-4.5 -20v-631 q0 -23 -14 -37t-37 -14h-133q-23 0 -37 14.5t-14 36.5v1329q0 20 14.5 35t36.5 15h193q20 0 38.5 -14.5t24.5 -35.5l215 -813q6 -20 13.5 -20t13.5 20l217 813q4 20 22.5 35t40.5 15h193z" glyph-name="m" horiz-adv-x="1234" unicode="m"/><glyph d="M1020 1380l2 -1329q0 -23 -15.5 -37t-35.5 -14h-117q-20 0 -41.5 13.5t-32.5 31.5l-438 819q-10 18 -17.5 16.5t-7.5 -22.5v-807q0 -23 -14 -37t-37 -14h-133q-23 0 -37 14.5t-14 36.5v1329q0 20 14.5 35t36.5 15h121q20 0 42.5 -13.5t31.5 -30.5l434 -808 q10 -18 17 -16.5t7 22.5l-2 794q0 23 14.5 37.5t37.5 14.5h133q20 0 35.5 -15t15.5 -35z" glyph-name="n" horiz-adv-x="1103" unicode="n"/><glyph d="M1020 1380l2 -1329q0 -23 -15.5 -37t-35.5 -14h-117q-20 0 -41.5 13.5t-32.5 31.5l-438 819q-10 18 -17.5 16.5t-7.5 -22.5v-807q0 -23 -14 -37t-37 -14h-133q-23 0 -37 14.5t-14 36.5v1329q0 20 14.5 35t36.5 15h121q20 0 42.5 -13.5t31.5 -30.5l434 -808 q10 -18 17 -16.5t7 22.5l-2 794q0 23 14.5 37.5t37.5 14.5h133q20 0 35.5 -15t15.5 -35z" glyph-name="n" horiz-adv-x="1103" unicode="ñ"/><glyph d="M862 236q23 0 37 -14.5t14 -37.5v-133q0 -23 -14 -37t-37 -14h-704q-20 0 -36 14.5t-16 36.5v133q0 23 15.5 37.5t36.5 14.5h704zM511 1430q177 0 303 -125t126 -304v-210q0 -178 -126 -304.5t-303 -126.5t-303 126t-126 305v210q0 176 126 302.5t303 126.5zM705 791v210 q0 80 -57.5 136.5t-137.5 56.5t-136.5 -56.5t-56.5 -136.5v-210q0 -80 56.5 -137.5t136.5 -57.5t137.5 57.5t57.5 137.5z" glyph-name="o" horiz-adv-x="1021" unicode="o"/><glyph d="M862 236q23 0 37 -14.5t14 -37.5v-133q0 -23 -14 -37t-37 -14h-704q-20 0 -36 14.5t-16 36.5v133q0 23 15.5 37.5t36.5 14.5h704zM511 1430q177 0 303 -125t126 -304v-210q0 -178 -126 -304.5t-303 -126.5t-303 126t-126 305v210q0 176 126 302.5t303 126.5zM705 791v210 q0 80 -57.5 136.5t-137.5 56.5t-136.5 -56.5t-56.5 -136.5v-210q0 -80 56.5 -137.5t136.5 -57.5t137.5 57.5t57.5 137.5z" glyph-name="o" horiz-adv-x="1021" unicode="ø"/><glyph d="M862 236q23 0 37 -14.5t14 -37.5v-133q0 -23 -14 -37t-37 -14h-704q-20 0 -36 14.5t-16 36.5v133q0 23 15.5 37.5t36.5 14.5h704zM511 1430q177 0 303 -125t126 -304v-210q0 -178 -126 -304.5t-303 -126.5t-303 126t-126 305v210q0 176 126 302.5t303 126.5zM705 791v210 q0 80 -57.5 136.5t-137.5 56.5t-136.5 -56.5t-56.5 -136.5v-210q0 -80 56.5 -137.5t136.5 -57.5t137.5 57.5t57.5 137.5z" glyph-name="o" horiz-adv-x="1021" unicode="ö"/><glyph d="M862 236q23 0 37 -14.5t14 -37.5v-133q0 -23 -14 -37t-37 -14h-704q-20 0 -36 14.5t-16 36.5v133q0 23 15.5 37.5t36.5 14.5h704zM511 1430q177 0 303 -125t126 -304v-210q0 -178 -126 -304.5t-303 -126.5t-303 126t-126 305v210q0 176 126 302.5t303 126.5zM705 791v210 q0 80 -57.5 136.5t-137.5 56.5t-136.5 -56.5t-56.5 -136.5v-210q0 -80 56.5 -137.5t136.5 -57.5t137.5 57.5t57.5 137.5z" glyph-name="o" horiz-adv-x="1021" unicode="õ"/><glyph d="M862 236q23 0 37 -14.5t14 -37.5v-133q0 -23 -14 -37t-37 -14h-704q-20 0 -36 14.5t-16 36.5v133q0 23 15.5 37.5t36.5 14.5h704zM511 1430q177 0 303 -125t126 -304v-210q0 -178 -126 -304.5t-303 -126.5t-303 126t-126 305v210q0 176 126 302.5t303 126.5zM705 791v210 q0 80 -57.5 136.5t-137.5 56.5t-136.5 -56.5t-56.5 -136.5v-210q0 -80 56.5 -137.5t136.5 -57.5t137.5 57.5t57.5 137.5z" glyph-name="o" horiz-adv-x="1021" unicode="ô"/><glyph d="M862 236q23 0 37 -14.5t14 -37.5v-133q0 -23 -14 -37t-37 -14h-704q-20 0 -36 14.5t-16 36.5v133q0 23 15.5 37.5t36.5 14.5h704zM511 1430q177 0 303 -125t126 -304v-210q0 -178 -126 -304.5t-303 -126.5t-303 126t-126 305v210q0 176 126 302.5t303 126.5zM705 791v210 q0 80 -57.5 136.5t-137.5 56.5t-136.5 -56.5t-56.5 -136.5v-210q0 -80 56.5 -137.5t136.5 -57.5t137.5 57.5t57.5 137.5z" glyph-name="o" horiz-adv-x="1021" unicode="ó"/><glyph d="M862 236q23 0 37 -14.5t14 -37.5v-133q0 -23 -14 -37t-37 -14h-704q-20 0 -36 14.5t-16 36.5v133q0 23 15.5 37.5t36.5 14.5h704zM511 1430q177 0 303 -125t126 -304v-210q0 -178 -126 -304.5t-303 -126.5t-303 126t-126 305v210q0 176 126 302.5t303 126.5zM705 791v210 q0 80 -57.5 136.5t-137.5 56.5t-136.5 -56.5t-56.5 -136.5v-210q0 -80 56.5 -137.5t136.5 -57.5t137.5 57.5t57.5 137.5z" glyph-name="o" horiz-adv-x="1021" unicode="ò"/><glyph d="M506 1430q193 0 328 -135.5t135 -327.5v-162q0 -182 -128 -310t-311 -128h-161q-20 0 -36 -15.5t-16 -36.5v-264q0 -20 -15 -35.5t-36 -15.5h-133q-20 0 -35.5 15.5t-15.5 35.5v1327q0 23 15.5 37.5t35.5 14.5h373zM733 805v162q0 94 -66.5 160.5t-160.5 66.5h-137 q-20 0 -36 -14.5t-16 -36.5v-490q0 -20 15.5 -35.5t36.5 -15.5h161q84 0 143.5 59.5t59.5 143.5z" glyph-name="p" horiz-adv-x="1050" unicode="p"/><glyph d="M836 78q-16 -12 -18.5 -32.5t9.5 -37.5l4 -8l43 -59q12 -16 9.5 -38t-21.5 -34l-106 -78q-18 -12 -39 -8t-33 20l-115 158q-14 23 -41 23h-6q-61 0 -119 16q-141 39 -231 156.5t-90 267.5v582q0 150 90 267.5t231 156.5q59 16 119 16h41q61 0 121 -16q139 -39 229.5 -157 t90.5 -267v-582q0 -102 -45 -193.5t-123 -152.5zM768 424v582q0 86 -59.5 145t-145.5 59h-41q-84 0 -144.5 -59t-60.5 -145v-582q0 -84 60.5 -144.5t144.5 -60.5h41q86 0 145.5 60.5t59.5 144.5z" glyph-name="q" unicode="q"/><glyph d="M788 451q-16 -12 -20 -32t6 -36l176 -307q14 -25 0 -50.5t-43 -25.5h-155q-29 0 -43 25l-183 315q-14 27 -43 27h-114q-20 0 -36 -15.5t-16 -36.5v-264q0 -20 -15 -35.5t-36 -15.5h-133q-20 0 -35.5 15.5t-15.5 35.5v1327q0 23 15.5 37.5t35.5 14.5h373q193 0 328 -135.5 t135 -327.5v-162q0 -106 -48.5 -199.5t-132.5 -154.5zM733 805v162q0 94 -66.5 160.5t-160.5 66.5h-137q-20 0 -36 -14.5t-16 -36.5v-490q0 -23 15.5 -37t36.5 -14h161q84 0 143.5 59.5t59.5 143.5z" glyph-name="r" horiz-adv-x="1050" unicode="r"/><glyph d="M555 844q49 -16 75.5 -25.5t76 -32t79 -44t67.5 -57.5t59.5 -75t37 -94t15.5 -121q0 -137 -95.5 -246.5t-228.5 -148.5q-57 -16 -113 -16q-76 0 -147 16q-174 41 -275 162q-14 18 -10 40.5t23 35.5l114 71q35 20 66 -10q80 -80 229 -80q68 0 134.5 52.5t66.5 123.5 q0 92 -51 134t-199 94q-49 16 -75.5 25t-74.5 31.5t-77 42t-65.5 54.5t-56 72t-34 89t-14.5 114q0 137 88 239.5t215 139.5q59 16 117 16q63 0 127 -16q158 -41 260 -162q14 -16 10 -40t-22 -36l-115 -72q-35 -23 -64 8q-80 82 -196 82q-59 0 -122 -44t-63 -115 q0 -82 48.5 -120t189.5 -87z" glyph-name="s" horiz-adv-x="1046" unicode="s"/><glyph d="M555 844q49 -16 75.5 -25.5t76 -32t79 -44t67.5 -57.5t59.5 -75t37 -94t15.5 -121q0 -137 -95.5 -246.5t-228.5 -148.5q-57 -16 -113 -16q-76 0 -147 16q-174 41 -275 162q-14 18 -10 40.5t23 35.5l114 71q35 20 66 -10q80 -80 229 -80q68 0 134.5 52.5t66.5 123.5 q0 92 -51 134t-199 94q-49 16 -75.5 25t-74.5 31.5t-77 42t-65.5 54.5t-56 72t-34 89t-14.5 114q0 137 88 239.5t215 139.5q59 16 117 16q63 0 127 -16q158 -41 260 -162q14 -16 10 -40t-22 -36l-115 -72q-35 -23 -64 8q-80 82 -196 82q-59 0 -122 -44t-63 -115 q0 -82 48.5 -120t189.5 -87z" glyph-name="s" horiz-adv-x="1046" unicode="ß"/><glyph d="M840 1430q20 0 35.5 -14.5t15.5 -35.5v-135q0 -20 -15.5 -35.5t-35.5 -15.5h-185q-23 0 -37 -14.5t-14 -34.5v-1094q0 -23 -15.5 -37t-35.5 -14h-133q-23 0 -37 14.5t-14 36.5v1094q0 20 -15.5 34.5t-36.5 14.5h-184q-23 0 -37 15.5t-14 35.5v135q0 20 14.5 35t36.5 15 h707z" glyph-name="t" horiz-adv-x="972" unicode="t"/><glyph d="M127 51v133q0 23 14.5 37.5t36.5 14.5h705q20 0 35.5 -14.5t15.5 -37.5v-133q0 -23 -15.5 -37t-35.5 -14h-705q-23 0 -37 14t-14 37zM723 1370q0 20 14.5 35.5t36.5 15.5h131q23 0 38 -15t15 -36v-579q0 -178 -125.5 -304.5t-304.5 -126.5h2q-176 0 -302 126t-126 305 v579q0 20 15.5 35.5t36.5 15.5h133q20 0 35.5 -15t15.5 -36v-579q0 -80 56.5 -137.5t135.5 -57.5h-2q80 0 137.5 57.5t57.5 137.5v579z" glyph-name="u" horiz-adv-x="1042" unicode="u"/><glyph d="M127 51v133q0 23 14.5 37.5t36.5 14.5h705q20 0 35.5 -14.5t15.5 -37.5v-133q0 -23 -15.5 -37t-35.5 -14h-705q-23 0 -37 14t-14 37zM723 1370q0 20 14.5 35.5t36.5 15.5h131q23 0 38 -15t15 -36v-579q0 -178 -125.5 -304.5t-304.5 -126.5h2q-176 0 -302 126t-126 305 v579q0 20 15.5 35.5t36.5 15.5h133q20 0 35.5 -15t15.5 -36v-579q0 -80 56.5 -137.5t135.5 -57.5h-2q80 0 137.5 57.5t57.5 137.5v579z" glyph-name="u" horiz-adv-x="1042" unicode="ü"/><glyph d="M127 51v133q0 23 14.5 37.5t36.5 14.5h705q20 0 35.5 -14.5t15.5 -37.5v-133q0 -23 -15.5 -37t-35.5 -14h-705q-23 0 -37 14t-14 37zM723 1370q0 20 14.5 35.5t36.5 15.5h131q23 0 38 -15t15 -36v-579q0 -178 -125.5 -304.5t-304.5 -126.5h2q-176 0 -302 126t-126 305 v579q0 20 15.5 35.5t36.5 15.5h133q20 0 35.5 -15t15.5 -36v-579q0 -80 56.5 -137.5t135.5 -57.5h-2q80 0 137.5 57.5t57.5 137.5v579z" glyph-name="u" horiz-adv-x="1042" unicode="û"/><glyph d="M127 51v133q0 23 14.5 37.5t36.5 14.5h705q20 0 35.5 -14.5t15.5 -37.5v-133q0 -23 -15.5 -37t-35.5 -14h-705q-23 0 -37 14t-14 37zM723 1370q0 20 14.5 35.5t36.5 15.5h131q23 0 38 -15t15 -36v-579q0 -178 -125.5 -304.5t-304.5 -126.5h2q-176 0 -302 126t-126 305 v579q0 20 15.5 35.5t36.5 15.5h133q20 0 35.5 -15t15.5 -36v-579q0 -80 56.5 -137.5t135.5 -57.5h-2q80 0 137.5 57.5t57.5 137.5v579z" glyph-name="u" horiz-adv-x="1042" unicode="ú"/><glyph d="M127 51v133q0 23 14.5 37.5t36.5 14.5h705q20 0 35.5 -14.5t15.5 -37.5v-133q0 -23 -15.5 -37t-35.5 -14h-705q-23 0 -37 14t-14 37zM723 1370q0 20 14.5 35.5t36.5 15.5h131q23 0 38 -15t15 -36v-579q0 -178 -125.5 -304.5t-304.5 -126.5h2q-176 0 -302 126t-126 305 v579q0 20 15.5 35.5t36.5 15.5h133q20 0 35.5 -15t15.5 -36v-579q0 -80 56.5 -137.5t135.5 -57.5h-2q80 0 137.5 57.5t57.5 137.5v579z" glyph-name="u" horiz-adv-x="1042" unicode="ù"/><glyph d="M1057 1430q20 0 30.5 -14.5t6.5 -33.5l-363 -1333q-6 -20 -24.5 -34.5t-40.5 -14.5h-156q-20 0 -38.5 14.5t-25.5 34.5l-362 1333q-6 18 5 33t32 15h143q20 0 39 -14.5t25 -33.5l247 -909q6 -20 13.5 -20t13.5 20l248 909q4 18 23.5 33t39.5 15h144z" glyph-name="v" horiz-adv-x="1177" unicode="v"/><glyph d="M1415 1430q23 0 34 -14.5t9 -35.5l-241 -1331q-4 -20 -21.5 -34.5t-38.5 -14.5h-192q-23 0 -40.5 14.5t-21.5 34.5l-125 690q-2 20 -8 20.5t-8 -20.5l-125 -690q-4 -20 -21.5 -34.5t-37.5 -14.5h-195q-20 0 -37.5 14.5t-21.5 34.5l-242 1331q-2 20 9 35t34 15h137 q20 0 37.5 -14.5t22.5 -35.5l149 -821q4 -20 9 -20t9 20l148 821q4 20 21.5 35t37.5 15h148q20 0 37.5 -14.5t21.5 -35.5l148 -821q4 -20 9 -20t9 20l150 821q4 20 21 35t38 15h137z" glyph-name="w" horiz-adv-x="1540" unicode="w"/><glyph d="M741 670l338 -625q10 -18 2 -31.5t-28 -13.5h-168q-20 0 -42 13.5t-32 31.5l-205 377q-8 18 -22.5 18t-24.5 -18l-205 -377q-8 -18 -30.5 -31.5t-42.5 -13.5h-166q-23 0 -30 13.5t3 31.5l338 625q8 18 8 44.5t-8 45.5l-338 626q-10 18 -3 31t30 13h166q20 0 41.5 -12.5 t31.5 -31.5l205 -378q10 -18 24.5 -18.5t22.5 18.5l205 378q10 18 31.5 31t42.5 13h168q20 0 28.5 -12.5t-2.5 -31.5l-338 -626q-10 -18 -10 -45t10 -45z" glyph-name="x" horiz-adv-x="1165" unicode="x"/><glyph d="M1024 1430q20 0 29.5 -13.5t1.5 -34.5l-348 -895q-18 -47 -19 -98v-338q0 -23 -15.5 -37t-35.5 -14h-133q-23 0 -37 14.5t-14 36.5v338q0 51 -19 98l-348 895q-8 20 1 34t30 14h151q23 0 42.5 -13.5t27.5 -34.5l215 -548q6 -18 17.5 -18.5t17.5 18.5l215 548 q8 20 27.5 34t39.5 14h154z" glyph-name="y" horiz-adv-x="1140" unicode="y"/><glyph d="M1024 1430q20 0 29.5 -13.5t1.5 -34.5l-348 -895q-18 -47 -19 -98v-338q0 -23 -15.5 -37t-35.5 -14h-133q-23 0 -37 14.5t-14 36.5v338q0 51 -19 98l-348 895q-8 20 1 34t30 14h151q23 0 42.5 -13.5t27.5 -34.5l215 -548q6 -18 17.5 -18.5t17.5 18.5l215 548 q8 20 27.5 34t39.5 14h154z" glyph-name="y" horiz-adv-x="1140" unicode="ÿ"/><glyph d="M1024 1430q20 0 29.5 -13.5t1.5 -34.5l-348 -895q-18 -47 -19 -98v-338q0 -23 -15.5 -37t-35.5 -14h-133q-23 0 -37 14.5t-14 36.5v338q0 51 -19 98l-348 895q-8 20 1 34t30 14h151q23 0 42.5 -13.5t27.5 -34.5l215 -548q6 -18 17.5 -18.5t17.5 18.5l215 548 q8 20 27.5 34t39.5 14h154z" glyph-name="y" horiz-adv-x="1140" unicode="ý"/><glyph d="M881 236q20 0 34.5 -14.5t14.5 -37.5v-133q0 -23 -14.5 -37t-34.5 -14h-746q-20 0 -35.5 14.5t-15.5 36.5v92q0 51 25 97l505 911q10 18 3 30.5t-29 12.5h-455q-23 0 -37 15.5t-14 35.5v135q0 20 14.5 35t36.5 15h741q20 0 35 -14.5t15 -35.5v-106q0 -51 -25 -94 l-498 -899q-10 -18 -2.5 -31.5t29.5 -13.5h453z" glyph-name="z" horiz-adv-x="1011" unicode="z"/><glyph glyph-name="uni00A0" horiz-adv-x="718" unicode=" "/><glyph glyph-name="uni00AD" horiz-adv-x="163" unicode="­"/><glyph d="M391 1411q18 0 26.5 -26.5t4.5 -43.5q-12 -45 -29 -104l-61 -229q-8 -31 -28.5 -52.5t-43.5 -21.5h-143q-20 0 -29.5 21.5t-1.5 52.5l61 229q4 14 29 104q4 16 27.5 43t42.5 27h145z" glyph-name="quoteright" horiz-adv-x="503" unicode="’"/><glyph d="M1276 608q20 0 35.5 -14t15.5 -35v-135q0 -20 -15.5 -35.5t-35.5 -15.5h-49q-51 0 -51 -4v-2q-27 -125 -108 -220.5t-194 -142.5q-94 -39 -192 -39q-53 0 -104 12q-45 8 -91 27q-166 70 -251.5 230.5t-49.5 340.5q8 31 22.5 68t24.5 57l13 21q10 18 3 30.5t-28 12.5h-88 q-23 0 -37 15.5t-14 35.5v135q0 20 14.5 34.5t36.5 14.5h186q20 0 33 15.5t8 36.5q-2 8 -4 23.5t-4 58.5t6 69q31 145 150 232q139 102 307 67q82 -18 148 -67q43 -31 79.5 -96.5t51.5 -114.5l16 -49q4 -20 -7 -35t-32 -15h-135q-20 0 -39.5 13.5t-28.5 33.5q-4 8 -11 23.5 t-33.5 42.5t-57.5 33q-59 14 -111.5 -21t-66 -95t20.5 -112.5t96 -64.5l4 -2h6t9 -1t7 -1q8 0 2 -51l-2 -17q-6 -49 -8 -100v-17q-2 -51 -16 -49h-11q-98 6 -178 -54t-100 -159q-23 -109 37.5 -202t169.5 -117q37 -8 78.5 3t74.5 31.5t61.5 42t43.5 35.5l16 17q12 16 8 26.5 t-26 10.5h-2q-20 0 -36 15t-16 36v135q0 20 15.5 34.5t36.5 14.5h397z" glyph-name="uniF002" horiz-adv-x="1409" unicode=""/><glyph d="M776 1434q23 0 37 -14.5t14 -35.5v-573q0 -158 -113.5 -268.5t-273.5 -104.5q-150 6 -254 118t-104 265v563q0 20 15.5 35t35.5 15h133q20 0 35.5 -14.5t15.5 -35.5v-567q0 -55 37 -97t92 -46q59 -4 102.5 37t43.5 100v573q0 20 15.5 35t35.5 15h133z" glyph-name="uniF003" horiz-adv-x="909" unicode=""/><glyph d="M328 1434q23 0 37 -14.5t14 -35.5v-901q0 -20 -14.5 -35.5t-36.5 -15.5h-133q-23 0 -37.5 15.5t-14.5 35.5v901q0 20 14.5 35t37.5 15h133z" glyph-name="uniF004" horiz-adv-x="522" unicode=""/><glyph d="M369 1198q-23 0 -37.5 -14.5t-14.5 -34.5v-45q0 -20 14.5 -34.5t37.5 -14.5h166q23 0 37 -15.5t14 -35.5v-136q0 -20 -14.5 -34.5t-36.5 -14.5h-166q-23 0 -37.5 -15.5t-14.5 -35.5v-43q0 -20 14.5 -35.5t37.5 -15.5h397q23 0 37 -14.5t14 -36.5v-134q0 -20 -14.5 -35.5 t-36.5 -15.5h-633q-23 0 -37 15.5t-14 35.5v895q0 20 14.5 35t36.5 15h633q23 0 37 -14.5t14 -35.5v-135q0 -20 -14.5 -35.5t-36.5 -15.5h-397z" glyph-name="uniF005" horiz-adv-x="899" unicode=""/><glyph d="M635 1434q139 -39 227 -155t88 -261v-178q0 -180 -127 -307t-307 -127t-307 126.5t-127 307.5v178q0 145 89 261t226 155q59 18 120 18t118 -18zM715 840v178q0 82 -58.5 140.5t-140.5 58.5t-140.5 -58.5t-58.5 -140.5v-178q0 -82 58.5 -140.5t140.5 -58.5t140.5 58.5 t58.5 140.5z" glyph-name="uniF006" horiz-adv-x="1032" unicode=""/><glyph d="M565 1434q115 -35 188.5 -133.5t73.5 -221.5v-569q0 -20 -14 -35.5t-37 -15.5h-133q-20 0 -35.5 15t-15.5 36v41q0 20 -14.5 35.5t-36.5 15.5h-172q-20 0 -36 -15.5t-16 -35.5v-41q0 -20 -15 -35.5t-36 -15.5h-133q-20 0 -35.5 15t-15.5 36v569q0 123 73.5 221.5 t188.5 133.5q53 18 110.5 18t110.5 -18zM592 889v190q0 57 -43 98.5t-103 36.5q-55 -2 -92 -44t-37 -97v-184q0 -23 15.5 -37t36.5 -14h172q23 0 37 14t14 37z" glyph-name="uniF007" horiz-adv-x="909" unicode=""/><glyph d="M776 979q23 0 37 -15.5t14 -35.5v-568q0 -123 -72.5 -221t-187.5 -135q-55 -16 -112.5 -16t-112.5 16q-115 37 -187.5 135.5t-72.5 220.5v568q0 20 15.5 35.5t35.5 15.5h133q20 0 35.5 -15.5t15.5 -35.5v-563q0 -55 37 -96.5t92 -45.5q59 -4 102.5 37t43.5 100v568 q0 20 15.5 35.5t35.5 15.5h133z" glyph-name="uniF008" horiz-adv-x="909" unicode=""/><glyph d="M328 1010q23 0 37 -14.5t14 -34.5v-906q0 -20 -14.5 -35.5t-36.5 -15.5h-133q-23 0 -37.5 15.5t-14.5 35.5v906q0 20 14.5 34.5t37.5 14.5h133z" glyph-name="uniF009" horiz-adv-x="522" unicode=""/><glyph d="M369 764q-23 0 -37.5 -14.5t-14.5 -34.5v-45q0 -20 14.5 -34.5t37.5 -14.5h166q23 0 37 -15.5t14 -36.5v-135q0 -20 -14.5 -34.5t-36.5 -14.5h-166q-23 0 -37.5 -15.5t-14.5 -35.5v-43q0 -20 14.5 -35.5t37.5 -15.5h397q23 0 37 -14.5t14 -37.5v-135q0 -20 -14.5 -34.5 t-34.5 -14.5h-635h-2q-20 0 -34.5 14.5t-14.5 34.5v897q0 20 14.5 34.5t36.5 14.5h633q23 0 37 -14t14 -35v-135q0 -20 -14.5 -35.5t-36.5 -15.5h-397z" glyph-name="uniF00A" horiz-adv-x="899" unicode=""/><glyph d="M516 1034q180 0 307 -128t127 -306v-178q0 -147 -88 -262t-225 -156q-59 -16 -120.5 -16t-121.5 16q-137 41 -225 155.5t-88 262.5v178q0 178 127 306t307 128zM715 422v178q0 82 -58.5 140.5t-140.5 58.5t-140.5 -58.5t-58.5 -140.5v-178q0 -82 58.5 -140.5t140.5 -58.5 t140.5 58.5t58.5 140.5z" glyph-name="uniF00B" horiz-adv-x="1032" unicode=""/><glyph d="M440 1004q160 6 273.5 -103.5t113.5 -269.5v-576q0 -20 -14 -35.5t-37 -15.5h-133q-20 0 -35.5 15.5t-15.5 35.5v49q0 20 -14.5 36t-36.5 16h-172q-20 0 -36 -15.5t-16 -36.5v-49q0 -20 -14 -35.5t-37 -15.5h-133q-20 0 -35.5 15.5t-15.5 35.5v568q0 152 104 264.5 t254 116.5zM592 440v191q0 59 -43 100t-105 37q-53 -2 -90 -44t-37 -97v-187q0 -20 15.5 -34.5t36.5 -14.5h172q23 0 37 14.5t14 34.5z" glyph-name="uniF00C" horiz-adv-x="909" unicode=""/><glyph d="M1845 240q20 0 35.5 -14.5t15.5 -35.5v-135q0 -20 -15 -35.5t-36 -15.5h-1710q-20 0 -35.5 15.5t-15.5 35.5v95q0 49 25 94l505 911q10 18 3 30.5t-29 12.5h-455q-23 0 -37 15.5t-14 35.5v135q0 20 14.5 35t36.5 15h741q20 0 35 -14.5t15 -35.5v-106q0 -51 -25 -94 l-498 -899q-10 -18 -2.5 -31.5t29.5 -13.5h1417z" glyph-name="uniF00D" horiz-adv-x="1978" unicode=""/><glyph d="M1755 1434q20 0 35.5 -14.5t15.5 -37.5v-133q0 -20 -15 -35.5t-36 -15.5h-389q-178 0 -324.5 -100.5t-210.5 -263.5l-147 -379q-4 -10 -4 -19v-381q0 -20 -15.5 -35.5t-35.5 -15.5h-133q-23 0 -37.5 15.5t-14.5 35.5v381q0 8 -4 19l-354 909q-10 27 5 48.5t42 21.5h143 q35 0 48 -31l223 -572q4 -12 15 -12t16 12l32 87q92 233 299 374.5t457 141.5h389z" glyph-name="uniF00E" horiz-adv-x="1888" unicode=""/><glyph d="M1909 1434q23 0 37 -14.5t14 -35.5v-135q0 -20 -14.5 -35.5t-36.5 -15.5h-606q-160 0 -295.5 -81t-210.5 -220l-82 -154q-14 -25 0 -47l332 -616q14 -27 -1.5 -51.5t-44.5 -24.5h-151q-31 0 -45 27l-215 399q-8 12 -23.5 12t-21.5 -12l-215 -399q-14 -27 -45 -27h-152 q-29 0 -44 24.5t-1 51.5l332 616q14 23 0 47l-332 617q-14 25 1 49.5t44 24.5h152q31 0 45 -27l215 -397q6 -14 21.5 -14.5t23.5 14.5q106 197 297.5 310.5t415.5 113.5h606z" glyph-name="uniF00F" horiz-adv-x="2041" unicode=""/><glyph d="M2271 1434q23 0 38 -14.5t15 -37.5v-133q0 -20 -15 -35.5t-38 -15.5h-321q-229 0 -405.5 -146.5t-217.5 -373.5l-115 -631q-2 -18 -16 -30.5t-33 -12.5h-209q-18 0 -32.5 12.5t-18.5 30.5l-119 653q-2 14 -16 14.5t-16 -14.5l-119 -653q-4 -18 -17.5 -30.5t-31.5 -12.5 h-211q-18 0 -32.5 12.5t-16.5 30.5l-242 1327q-4 25 11.5 42.5t39.5 17.5h135q18 0 32.5 -11.5t18.5 -29.5l142 -787q2 -14 16.5 -14t18.5 14l141 787q4 18 18.5 29.5t32.5 11.5h162q18 0 31.5 -11.5t17.5 -29.5l143 -787q2 -12 16.5 -12t16.5 12l25 142q55 299 287.5 492.5 t535.5 193.5h348z" glyph-name="uniF010" horiz-adv-x="2406" unicode=""/><glyph d="M1649 1434q20 0 35.5 -14.5t15.5 -35.5v-135q0 -20 -15.5 -35.5t-35.5 -15.5h-1280q-23 0 -37.5 -14.5t-14.5 -34.5v-262q0 -20 14.5 -34.5t37.5 -14.5h264q20 0 35.5 -15.5t15.5 -36.5v-135q0 -20 -15.5 -34.5t-35.5 -14.5h-264q-23 0 -37.5 -15.5t-14.5 -35.5v-496 q0 -20 -14 -35.5t-37 -15.5h-133q-23 0 -37 15.5t-14 35.5v1329q0 20 14.5 35t36.5 15h1516z" glyph-name="uniF012" horiz-adv-x="1781" unicode=""/><glyph d="M1628 1434q20 0 35.5 -14.5t15.5 -35.5v-135q0 -20 -15 -35.5t-36 -15.5h-973q-23 0 -37 -14.5t-14 -34.5v-1094q0 -20 -15.5 -35.5t-35.5 -15.5h-133q-23 0 -37 15.5t-14 35.5v1094q0 20 -15.5 34.5t-36.5 14.5h-184q-23 0 -37 15.5t-14 35.5v135q0 20 14.5 35t36.5 15 h1495z" glyph-name="uniF013" horiz-adv-x="1761" unicode=""/><glyph d="M2015 240q20 0 35.5 -15.5t15.5 -36.5v-184h-399q-467 0 -1073 -16h-76q-55 0 -112 16q-135 39 -229.5 148.5t-94.5 248.5q0 63 15.5 118.5t36 95.5t59 75t68.5 56.5t79 44t75.5 33t76.5 26.5q141 47 189 85t48 120q0 72 -62.5 117t-121.5 45q-117 0 -197 -84 q-29 -31 -65 -9l-113 72q-18 12 -22.5 35.5t12.5 42.5q100 119 258 160q63 18 127 18q57 0 117 -18q127 -37 215 -138.5t88 -240.5q0 -59 -14.5 -112.5t-34 -90.5t-56.5 -70.5t-65.5 -54t-76.5 -43t-75 -32t-76 -25.5q-147 -51 -198.5 -93t-51.5 -133q0 -74 67 -126t134 -52 h70q610 16 1079 17h348z" glyph-name="uniF014" horiz-adv-x="2148" unicode=""/><glyph d="M2073 197q10 -18 5 -39t-24 -31q-160 -92 -342 -123q-90 -14 -178 -14q-86 0 -180 14q-158 27 -325 96.5t-267 131t-191 128.5q-14 10 -30 11h-11h-161q-20 0 -36 -15.5t-16 -36.5v-264q0 -20 -15 -35.5t-36 -15.5h-133q-20 0 -35.5 15.5t-15.5 35.5v1329q0 20 15.5 35 t35.5 15h373q193 0 328 -135.5t135 -327.5v-162q0 -164 -109 -289q-16 -16 -12 -39.5t24 -38.5q358 -217 662 -217q213 0 399 103q16 10 36 5t32 -22zM733 809v162q0 94 -66.5 160.5t-160.5 66.5h-137q-20 0 -36 -14.5t-16 -34.5v-492q0 -20 15.5 -35.5t36.5 -15.5h161 q84 0 143.5 59.5t59.5 143.5z" glyph-name="uniF015" horiz-adv-x="2162" unicode=""/><glyph d="M2046 240q20 0 35.5 -14.5t15.5 -37.5v-133q0 -20 -15.5 -35.5t-35.5 -15.5h-692q-233 0 -400.5 167t-167.5 402v277q0 12 -12 15t-16 -7l-445 -827q-14 -27 -45 -27h-135q-20 0 -35.5 15.5t-15.5 35.5l2 1329q0 20 15.5 35t35.5 15h133q20 0 35.5 -14.5t15.5 -37.5 l-2 -782q0 -12 12.5 -15t18.5 7l436 815q14 27 45 27h142q20 0 35.5 -14.5t15.5 -37.5v-809q0 -139 97.5 -236t236.5 -97h690z" glyph-name="uniF016" horiz-adv-x="2179" unicode=""/><glyph d="M2177 240q23 0 37 -14.5t14 -37.5v-133q0 -20 -14 -35.5t-37 -15.5h-690q-236 0 -402.5 167t-166.5 402v43q0 14 -13.5 15.5t-17.5 -10.5l-148 -558q-10 -37 -49 -36h-145q-39 0 -49 36l-148 558q-4 12 -17.5 11t-13.5 -16v-561q0 -20 -15 -35.5t-36 -15.5h-133 q-20 0 -35.5 15.5t-15.5 35.5v1327q0 23 15.5 37.5t35.5 14.5h203q39 0 49 -37l217 -817q4 -12 16.5 -12.5t14.5 12.5l217 817q10 37 49 37h203q23 0 37 -14.5t14 -37.5v-809q0 -139 98.5 -236t235.5 -97h690z" glyph-name="uniF017" horiz-adv-x="2310" unicode=""/><glyph d="M1341 240q20 0 36 -14.5t16 -35.5v-135q0 -20 -15.5 -35.5t-36.5 -15.5h-1208q-23 0 -37 15.5t-14 35.5v1329q0 20 14.5 36t36.5 16h133q23 0 37 -15.5t14 -36.5v-1093q0 -20 14.5 -35.5t37.5 -15.5h972z" glyph-name="uniF019" horiz-adv-x="1474" unicode=""/><glyph d="M2073 199q10 -20 5 -41t-24 -33q-162 -90 -342 -121q-90 -14 -178 -14q-80 0 -158 14q-98 20 -199.5 70.5t-153.5 88.5t-136 105q-27 20 -37 29q-27 20 -363 328q-16 16 -38.5 13t-34.5 -20l-86 -114q-10 -14 -11 -31v-418q0 -20 -15 -35.5t-36 -15.5h-133 q-20 0 -35.5 15.5t-15.5 35.5v1327q0 23 15.5 37.5t35.5 14.5h133q20 0 35.5 -14.5t15.5 -37.5v-456q0 -10 9.5 -13.5t15.5 5.5l375 495q14 20 41 21h166q31 0 45 -28t-4 -52l-349 -465q-12 -16 -10 -35.5t17 -32.5q344 -315 374 -340q8 -8 37 -30q70 -55 110 -84t107.5 -68 t136 -56.5t146.5 -17.5q211 0 397 103q18 10 38 5t32 -22z" glyph-name="uniF01A" horiz-adv-x="2160" unicode=""/><glyph d="M2071 197q12 -18 6 -40t-25 -32q-162 -88 -344 -121q-94 -16 -192 -16q-23 0 -46 2q-61 2 -127 14q-166 33 -307 121q-10 6 -21 0t-11 -19v-51q0 -20 -14.5 -35.5t-37.5 -15.5h-131q-23 0 -38 15.5t-15 35.5v338v2q-57 94 -173 150.5t-249 56.5q-12 0 -20.5 -8t-8.5 -21 v-518q0 -20 -15 -35.5t-36 -15.5h-133q-20 0 -35.5 15.5t-15.5 35.5v1329q0 20 15.5 36t35.5 16h133q20 0 35.5 -15.5t15.5 -36.5v-518q0 -12 8.5 -20t20.5 -8q221 0 402 -107q6 -4 13 0t7 12v641q0 20 15.5 36t35.5 16h133q23 0 37.5 -15.5t14.5 -36.5v-899q0 -18 12 -32 q84 -100 207 -161t260 -69v0h33q223 0 417 105q18 10 38 5t30 -22z" glyph-name="uniF01B" horiz-adv-x="2160" unicode=""/><glyph d="M2073 197q10 -18 5 -39t-24 -31q-160 -92 -342 -123q-90 -14 -178 -14q-78 0 -148 14q-199 43 -358 215q-16 20 -41.5 17t-40.5 -25q-90 -158 -262 -207q-59 -16 -119 -16h-41q-61 0 -118 16q-141 41 -232.5 161t-91.5 273v563q0 154 91 274t233 159q57 18 118 18h41 q59 0 119 -18q139 -39 229 -156q14 -18 9.5 -41t-23.5 -33l-117 -69q-37 -20 -65 12q-59 70 -152 70h-41q-86 0 -146.5 -63.5t-60.5 -152.5v-563q0 -90 60.5 -152.5t146.5 -62.5h41q86 0 146.5 62.5t60.5 152.5v80q0 23 -18 35q-8 8 -13 10q-41 27 -79 35q-16 4 -62 4 q-20 0 -34.5 14.5t-16.5 34.5l-2 135q-2 20 13 36t36 16q74 0 111 -9q102 -20 202 -98q66 -49 172 -199q45 -61 70 -92.5t72 -81t87 -73t98 -42t126 -18.5q213 0 399 103q16 10 36 5t32 -22z" glyph-name="uniF01C" horiz-adv-x="2162" unicode=""/><glyph d="M2111 197q12 -18 7.5 -39t-23.5 -31q-162 -92 -342 -123q-90 -14 -180 -14q-78 0 -156 14q-160 33 -319 135q-10 8 -20.5 1t-6.5 -19l14 -51q6 -25 -9 -45.5t-40 -20.5h-139q-39 0 -49 37l-86 315q-6 29 -33 37q-150 47 -289 2q-27 -8 -32 -35l-86 -319q-10 -37 -50 -37 h-139q-25 0 -40 20.5t-9 43.5l362 1329q10 37 48 37h180q39 0 49 -37l229 -838q4 -18 19 -29q37 -25 102 -79q70 -55 110 -84t107.5 -68t137 -56.5t145.5 -17.5q213 0 399 103q18 10 38 5t30 -22zM655 647q10 -2 17.5 6.5t3.5 18.5l-72 268q-4 14 -19.5 14t-19.5 -14 l-71 -266q-4 -10 3 -18.5t17 -6.5q69 6 141 -2z" glyph-name="uniF01D" horiz-adv-x="2201" unicode=""/><glyph d="M369 1206q-23 0 -37.5 -14t-14.5 -35v-262q0 -20 14.5 -34.5t37.5 -14.5h264q20 0 35.5 -15.5t15.5 -35.5v-136q0 -20 -15.5 -34.5t-35.5 -14.5h-264q-23 0 -37.5 -15t-14.5 -36v-260q0 -20 14.5 -35.5t37.5 -15.5h467q20 0 35.5 -14.5t15.5 -34.5v-136 q0 -20 -15.5 -35.5t-35.5 -15.5h-703q-23 0 -37 15.5t-14 35.5v1330q0 20 14.5 34.5t36.5 14.5h703q20 0 35.5 -14.5t15.5 -34.5v-136q0 -20 -15.5 -35.5t-35.5 -15.5h-467z" glyph-name="uniF01E" horiz-adv-x="968" unicode=""/><glyph d="M563 1442q182 0 311.5 -129t129.5 -312v-581q0 -135 -75 -246t-196 -162q-82 -33 -170 -32h-41q-88 0 -168 32q-121 51 -196.5 162t-75.5 246v581q0 182 129 311.5t311 129.5h41zM768 420v581q0 86 -59.5 145.5t-145.5 59.5h-41q-84 0 -144.5 -59.5t-60.5 -145.5v-581 q0 -84 60.5 -144.5t144.5 -60.5h41q86 0 145.5 60.5t59.5 144.5z" glyph-name="uniF020" unicode=""/><glyph d="M954 1442q20 0 35 -14.5t15 -36.5v-955q0 -150 -90.5 -266.5t-229.5 -157.5q-59 -16 -121 -16h-41q-61 0 -119 16q-141 41 -231 158t-90 266v955q0 23 15.5 37t35.5 14h133q20 0 35.5 -14.5t15.5 -36.5v-955q0 -84 60.5 -144.5t144.5 -60.5h41q86 0 145.5 60.5 t59.5 144.5v955q0 23 15.5 37t35.5 14h135z" glyph-name="uniF021" unicode=""/><glyph d="M82 51v133q0 23 14.5 37.5t36.5 14.5h762q23 0 37 -14.5t14 -37.5v-133q0 -23 -14 -37t-37 -14h-762q-23 0 -37 14t-14 37zM535 952q-4 14 -20.5 14.5t-20.5 -14.5l-156 -551q-12 -41 -53 -41h-148q-27 0 -43 21.5t-8 48.5l289 965q10 35 49 35h180q39 0 49 -35l289 -965 q8 -27 -8 -48.5t-43 -21.5h-148q-41 0 -53 41z" glyph-name="uniF022" horiz-adv-x="1028" unicode=""/><glyph d="M2073 201q10 -18 5 -40t-24 -32q-160 -92 -342 -123l-10 -2q-162 -35 -324 2q-190 39 -385 180q-16 12 -36.5 9.5t-32.5 -19.5q-90 -127 -238 -170q-61 -16 -123 -16h-41q-61 0 -121 16q-139 41 -229 158t-90 266v582q0 150 91 267.5t230 158.5q59 16 119 16h41 q61 0 119 -16q141 -41 231.5 -159t90.5 -267v-510q0 -25 20 -39l6 -6q2 -2 4 -2q70 -57 110 -86t107.5 -68t136 -56.5t146.5 -17.5q213 0 399 103q16 10 37 5t31 -22zM752 346q8 20 -11 29q-51 23 -113.5 35t-141 6t-142.5 -41q-16 -8 -8 -27q25 -55 75 -89t111 -34h41 q61 0 112.5 34t76.5 87zM741 625q10 -4 18.5 3t8.5 17v367q0 86 -59.5 146.5t-145.5 60.5h-41q-84 0 -144.5 -60.5t-60.5 -146.5v-365q0 -10 8.5 -16t18.5 -4q192 57 397 -2z" glyph-name="uniF024" horiz-adv-x="2162" unicode=""/><glyph d="M1896 1434q23 0 37.5 -14.5t14.5 -35.5v-135q0 -20 -14.5 -35.5t-37.5 -15.5h-374q-213 0 -384 -130t-227 -337l-188 -690q-10 -37 -49 -37h-180q-39 0 -50 37l-360 1329q-6 25 9.5 44.5t39.5 19.5h139q39 0 50 -37l239 -885q4 -16 22.5 -16t22.5 16l78 283 q76 283 310.5 461t527.5 178h374z" glyph-name="uniF025" horiz-adv-x="2029" unicode=""/></font>
</defs>
</svg>
